WIPSHDC-V1-Revival-Sans.glyphspackage
{
color = 9;
glyphname = uni4E52;
layers = (
{
layerId = m01;
shapes = (
{
closed = 1;
nodes = (
(702,546,l),
(702,224,l),
(731,224,l),
(731,546,l)
);
},
{
closed = 1;
nodes = (
(57,238,l),
(57,209,l),
(940,209,l),
(940,238,l)
);
},
{
closed = 1;
nodes = (
(260,558,l),
(260,529,l),
(883,529,l),
(883,558,l)
);
},
{
closed = 1;
nodes = (
(241,747,l),
(241,221,l),
(270,221,l),
(270,737,l)
);
},
{
closed = 1;
nodes = (
(751,832,l),
(646,792,o),
(429,758,o),
(252,739,c),
(256,732,o),
(261,721,o),
(262,714,c),
(442,734,o),
(659,766,o),
(782,812,c)
);
},
{
closed = 1;
nodes = (
(345,160,l),
(289,78,o),
(188,2,o),
(59,-47,c),
(65,-52,o),
(76,-63,o),
(80,-70,c),
(205,-20,o),
(302,55,o),
(368,145,c)
);
}
);
width = 1000;
},
{
layerId = "94DDBC6A-1627-4027-9125-871D02041BCD";
shapes = (
{
closed = 1;
nodes = (
(607,552,l),
(607,246,l),
(754,246,l),
(754,552,l)
);
},
{
closed = 1;
nodes = (
(45,307,l),
(45,172,l),
(955,172,l),
(955,307,l)
);
},
{
closed = 1;
nodes = (
(289,589,l),
(289,461,l),
(911,461,l),
(911,589,l)
);
},
{
closed = 1;
nodes = (
(214,798,l),
(214,241,l),
(369,241,l),
(369,739,l)
);
},
{
closed = 1;
nodes = (
(724,855,l),
(608,808,o),
(421,772,o),
(251,758,c),
(267,728,o),
(286,675,o),
(292,642,c),
(471,659,o),
(679,692,o),
(843,751,c)
);
},
{
closed = 1;
nodes = (
(321,180,l),
(273,124,o),
(193,61,o),
(79,18,c),
(123,-11,o),
(167,-63,o),
(192,-97,c),
(277,-51,o),
(378,28,o),
(438,105,c)
);
}
);
width = 1000;
}
);
note = cid09591;
unicode = 20050;
}
{
color = 9;
glyphname = uni4E53;
layers = (
{
layerId = m01;
shapes = (
{
closed = 1;
nodes = (
(702,546,l),
(702,224,l),
(731,224,l),
(731,546,l)
);
},
{
closed = 1;
nodes = (
(57,238,l),
(57,209,l),
(940,209,l),
(940,238,l)
);
},
{
closed = 1;
nodes = (
(260,558,l),
(260,529,l),
(883,529,l),
(883,558,l)
);
},
{
closed = 1;
nodes = (
(622,145,l),
(721,82,o),
(827,-4,o),
(878,-72,c),
(897,-54,l),
(843,15,o),
(739,99,o),
(641,161,c)
);
},
{
closed = 1;
nodes = (
(241,747,l),
(241,221,l),
(270,221,l),
(270,737,l)
);
},
{
closed = 1;
nodes = (
(751,832,l),
(644,790,o),
(428,759,o),
(252,739,c),
(256,732,o),
(261,722,o),
(262,715,c),
(442,733,o),
(657,765,o),
(782,812,c)
);
}
);
width = 1000;
},
{
layerId = "94DDBC6A-1627-4027-9125-871D02041BCD";
shapes = (
{
closed = 1;
nodes = (
(607,552,l),
(607,246,l),
(754,246,l),
(754,552,l)
);
},
{
closed = 1;
nodes = (
(45,307,l),
(45,172,l),
(955,172,l),
(955,307,l)
);
},
{
closed = 1;
nodes = (
(289,589,l),
(289,461,l),
(911,461,l),
(911,589,l)
);
},
{
closed = 1;
nodes = (
(594,95,l),
(662,40,o),
(761,-44,o),
(806,-97,c),
(944,-12,l),
(891,42,o),
(787,122,o),
(722,169,c)
);
},
{
closed = 1;
nodes = (
(214,798,l),
(214,246,l),
(369,246,l),
(369,739,l)
);
},
{
closed = 1;
nodes = (
(724,855,l),
(609,808,o),
(423,774,o),
(254,758,c),
(269,729,o),
(286,676,o),
(292,644,c),
(472,657,o),
(682,691,o),
(843,751,c)
);
}
);
width = 1000;
}
);
note = cid09592;
unicode = 20051;
}
{
glyphname = uni506F;
layers = (
{
layerId = m01;
shapes = (
{
closed = 1;
nodes = (
(448,219,l),
(448,-35,l),
(477,-33,l),
(477,219,l)
);
},
{
closed = 1;
nodes = (
(349,-67,l),
(448,-49,o),
(591,-24,o),
(726,2,c),
(725,30,l),
(582,4,o),
(435,-23,o),
(342,-38,c)
);
},
{
closed = 1;
nodes = (
(602,826,l),
(602,681,l),
(631,681,l),
(631,826,l)
);
},
{
closed = 1;
nodes = (
(298,697,l),
(298,668,l),
(938,668,l),
(938,697,l)
);
},
{
closed = 1;
nodes = (
(404,540,l),
(823,540,l),
(823,357,l),
(404,357,l)
);
},
{
closed = 1;
nodes = (
(375,569,l),
(375,327,l),
(852,327,l),
(852,569,l)
);
},
{
closed = 1;
nodes = (
(592,346,l),
(523,262,o),
(384,178,o),
(272,142,c),
(279,136,o),
(287,125,o),
(292,117,c),
(404,159,o),
(545,245,o),
(617,333,c)
);
},
{
closed = 1;
nodes = (
(607,339,l),
(661,145,o),
(775,-3,o),
(940,-70,c),
(945,-62,o),
(954,-51,o),
(962,-45,c),
(797,15,o),
(684,160,o),
(633,346,c)
);
},
{
closed = 1;
nodes = (
(883,291,l),
(836,252,o),
(754,193,o),
(693,160,c),
(714,144,l),
(776,176,o),
(855,227,o),
(911,273,c)
);
},
{
closed = 1;
nodes = (
(281,822,l),
(226,665,o),
(137,508,o),
(40,404,c),
(47,398,o),
(58,386,o),
(63,380,c),
(161,491,o),
(250,650,o),
(309,815,c)
);
},
{
closed = 1;
nodes = (
(180,582,l),
(180,-70,l),
(209,-70,l),
(209,609,l),
(207,610,l)
);
}
);
width = 1000;
},
{
layerId = "94DDBC6A-1627-4027-9125-871D02041BCD";
shapes = (
{
closed = 1;
nodes = (
(421,243,l),
(421,-16,l),
(559,6,l),
(559,243,l)
);
},
{
closed = 1;
nodes = (
(364,-89,l),
(461,-72,o),
(588,-50,o),
(705,-28,c),
(694,98,l),
(563,76,o),
(426,53,o),
(332,41,c)
);
},
{
closed = 1;
nodes = (
(563,856,l),
(563,703,l),
(707,703,l),
(707,856,l)
);
},
{
closed = 1;
nodes = (
(330,769,l),
(330,640,l),
(956,640,l),
(956,769,l)
);
},
{
closed = 1;
nodes = (
(511,488,l),
(767,488,l),
(767,439,l),
(511,439,l)
);
},
{
closed = 1;
nodes = (
(375,602,l),
(375,324,l),
(911,324,l),
(911,602,l)
);
},
{
closed = 1;
nodes = (
(579,388,l),
(501,311,o),
(382,244,o),
(269,214,c),
(300,186,o),
(340,137,o),
(360,103,c),
(477,143,o),
(610,234,o),
(705,340,c)
);
},
{
closed = 1;
nodes = (
(580,338,l),
(633,125,o),
(719,-21,o),
(903,-93,c),
(921,-56,o),
(961,-1,o),
(991,26,c),
(830,77,o),
(745,199,o),
(705,361,c)
);
},
{
closed = 1;
nodes = (
(870,315,l),
(827,273,o),
(754,218,o),
(702,187,c),
(792,107,l),
(846,135,o),
(918,180,o),
(980,225,c)
);
},
{
closed = 1;
nodes = (
(212,853,l),
(166,714,o),
(86,575,o),
(3,486,c),
(26,449,o),
(64,367,o),
(76,332,c),
(178,444,o),
(282,628,o),
(347,811,c)
);
},
{
closed = 1;
nodes = (
(132,509,l),
(132,-98,l),
(273,-98,l),
(273,725,l),
(272,726,l)
);
}
);
width = 1000;
}
);
note = cid10439;
unicode = 20591;
}
{
glyphname = uni523D;
layers = (
{
layerId = m01;
shapes = (
{
closed = 1;
nodes = (
(319,807,l),
(271,710,o),
(177,579,o),
(49,485,c),
(56,481,o),
(66,473,o),
(71,467,c),
(201,566,o),
(293,694,o),
(345,789,c),
(345,797,l),
(341,797,l),
(341,807,l)
);
},
{
closed = 1;
nodes = (
(322,807,l),
(322,786,l),
(337,786,l),
(418,713,o),
(520,600,o),
(569,529,c),
(593,550,l),
(544,619,o),
(442,729,o),
(355,807,c)
);
},
{
closed = 1;
nodes = (
(273,304,l),
(245,204,o),
(199,78,o),
(161,0,c),
(187,-8,l),
(224,69,o),
(273,194,o),
(305,296,c)
);
},
{
closed = 1;
nodes = (
(421,199,l),
(470,123,o),
(520,22,o),
(541,-46,c),
(569,-35,l),
(548,31,o),
(497,132,o),
(446,207,c)
);
},
{
closed = 1;
nodes = (
(184,502,l),
(184,472,l),
(489,472,l),
(489,502,l)
);
},
{
closed = 1;
nodes = (
(95,315,l),
(95,286,l),
(567,286,l),
(567,315,l)
);
},
{
closed = 1;
nodes = (
(98,-28,l),
(207,-13,o),
(365,11,o),
(518,35,c),
(518,63,l),
(357,38,o),
(191,15,o),
(86,2,c)
);
},
{
closed = 1;
nodes = (
(661,713,l),
(661,170,l),
(690,170,l),
(690,713,l)
);
},
{
closed = 1;
nodes = (
(873,809,l),
(873,-18,ls),
(873,-37,o),
(866,-42,o),
(848,-43,cs),
(833,-44,o),
(776,-44,o),
(707,-43,c),
(712,-51,o),
(717,-63,o),
(720,-71,c),
(804,-71,o),
(846,-71,o),
(869,-65,cs),
(890,-60,o),
(902,-49,o),
(902,-18,cs),
(902,809,l)
);
}
);
width = 1000;
},
{
layerId = "94DDBC6A-1627-4027-9125-871D02041BCD";
shapes = (
{
closed = 1;
nodes = (
(256,839,l),
(214,736,o),
(136,622,o),
(16,535,c),
(47,512,o),
(92,459,o),
(111,425,c),
(232,521,o),
(338,655,o),
(385,772,c),
(385,812,l),
(351,812,l),
(351,839,l)
);
},
{
closed = 1;
nodes = (
(289,839,l),
(289,739,l),
(308,739,l),
(389,658,o),
(467,554,o),
(510,469,c),
(612,581,l),
(566,661,o),
(471,765,o),
(395,839,c)
);
},
{
closed = 1;
nodes = (
(222,288,l),
(204,201,o),
(177,104,o),
(151,38,c),
(277,6,l),
(307,69,o),
(345,165,o),
(375,255,c)
);
},
{
closed = 1;
nodes = (
(378,170,l),
(420,89,o),
(456,-16,o),
(466,-83,c),
(601,-35,l),
(585,34,o),
(546,134,o),
(504,211,c)
);
},
{
closed = 1;
nodes = (
(168,544,l),
(168,419,l),
(497,419,l),
(497,544,l)
);
},
{
closed = 1;
nodes = (
(80,351,l),
(80,225,l),
(576,225,l),
(576,351,l)
);
},
{
closed = 1;
nodes = (
(103,-81,l),
(209,-64,o),
(352,-41,o),
(486,-18,c),
(484,104,l),
(336,85,o),
(177,66,o),
(70,55,c)
);
},
{
closed = 1;
nodes = (
(611,746,l),
(611,179,l),
(745,179,l),
(745,746,l)
);
},
{
closed = 1;
nodes = (
(808,836,l),
(808,71,ls),
(808,55,o),
(802,50,o),
(786,50,cs),
(769,50,o),
(718,50,o),
(671,52,c),
(689,12,o),
(708,-51,o),
(713,-90,c),
(793,-90,o),
(852,-85,o),
(893,-62,cs),
(933,-40,o),
(945,-2,o),
(945,70,cs),
(945,836,l)
);
}
);
width = 1000;
}
);
note = cid11218;
unicode = 21053;
}
{
glyphname = uni524E;
layers = (
{
layerId = m01;
shapes = (
{
closed = 1;
nodes = (
(386,468,l),
(425,443,o),
(469,405,o),
(491,379,c),
(511,396,l),
(490,422,o),
(445,459,o),
(406,483,c)
);
},
{
closed = 1;
nodes = (
(545,333,l),
(59,333,l),
(59,303,l),
(545,303,l)
);
},
{
closed = 1;
nodes = (
(328,488,l),
(298,488,l),
(298,-70,l),
(328,-70,l)
);
},
{
closed = 1;
nodes = (
(445,831,l),
(371,689,o),
(226,550,o),
(55,459,c),
(62,454,o),
(70,446,o),
(75,440,c),
(247,535,o),
(392,670,o),
(474,818,c)
);
},
{
closed = 1;
nodes = (
(289,319,l),
(233,208,o),
(137,98,o),
(40,33,c),
(46,29,o),
(55,17,o),
(59,10,c),
(156,79,o),
(254,194,o),
(313,308,c)
);
},
{
closed = 1;
nodes = (
(304,238,l),
(353,209,o),
(491,109,o),
(534,75,c),
(551,98,l),
(513,126,o),
(363,232,o),
(322,258,c)
);
},
{
closed = 1;
nodes = (
(653,728,l),
(623,728,l),
(623,185,l),
(653,185,l)
);
},
{
closed = 1;
nodes = (
(903,813,l),
(873,813,l),
(873,-10,ls),
(873,-28,o),
(868,-33,o),
(851,-34,cs),
(831,-35,o),
(766,-36,o),
(693,-34,c),
(699,-45,o),
(704,-60,o),
(707,-69,c),
(784,-69,o),
(840,-69,o),
(866,-64,cs),
(892,-57,o),
(903,-45,o),
(903,-9,cs)
);
},
{
closed = 1;
nodes = (
(92,748,l),
(245,689,o),
(419,582,o),
(505,503,c),
(528,523,l),
(441,602,o),
(266,708,o),
(117,768,c)
);
}
);
width = 1000;
},
{
layerId = "94DDBC6A-1627-4027-9125-871D02041BCD";
shapes = (
{
closed = 1;
nodes = (
(362,447,l),
(401,413,o),
(437,374,o),
(455,346,c),
(549,417,l),
(529,445,o),
(492,481,o),
(452,511,c)
);
},
{
closed = 1;
nodes = (
(539,368,l),
(43,368,l),
(43,244,l),
(539,244,l)
);
},
{
closed = 1;
nodes = (
(369,490,l),
(230,490,l),
(230,-89,l),
(369,-89,l)
);
},
{
closed = 1;
nodes = (
(372,857,l),
(298,728,o),
(167,601,o),
(18,533,c),
(47,509,o),
(91,461,o),
(111,433,c),
(265,514,o),
(411,648,o),
(511,803,c)
);
},
{
closed = 1;
nodes = (
(227,302,l),
(185,229,o),
(99,141,o),
(14,90,c),
(36,52,o),
(67,-11,o),
(79,-53,c),
(178,15,o),
(266,142,o),
(323,251,c)
);
},
{
closed = 1;
nodes = (
(263,175,l),
(319,132,o),
(412,48,o),
(461,-4,c),
(547,111,l),
(515,136,o),
(388,223,o),
(344,246,c)
);
},
{
closed = 1;
nodes = (
(707,763,l),
(566,763,l),
(566,191,l),
(707,191,l)
);
},
{
closed = 1;
nodes = (
(936,834,l),
(792,834,l),
(792,77,ls),
(792,58,o),
(784,52,o),
(765,52,cs),
(743,52,o),
(677,52,o),
(614,55,c),
(635,14,o),
(658,-54,o),
(664,-96,c),
(756,-96,o),
(828,-91,o),
(875,-68,cs),
(921,-44,o),
(936,-5,o),
(936,76,cs)
);
},
{
closed = 1;
nodes = (
(50,719,l),
(190,654,o),
(356,551,o),
(447,472,c),
(546,580,l),
(451,653,o),
(288,753,o),
(148,813,c)
);
}
);
width = 1000;
}
);
unicode = 21070;
}
{
color = 9;
glyphname = uni5406;
layers = (
{
layerId = m01;
shapes = (
{
closed = 1;
nodes = (
(105,697,l),
(105,668,l),
(317,668,l),
(317,224,l),
(105,224,l),
(105,194,l),
(347,194,l),
(347,697,l)
);
},
{
closed = 1;
nodes = (
(85,697,l),
(85,89,l),
(115,89,l),
(115,697,l)
);
},
{
closed = 1;
nodes = (
(626,825,l),
(587,729,o),
(513,584,o),
(456,501,c),
(479,484,l),
(536,569,o),
(607,708,o),
(658,815,c)
);
},
{
closed = 1;
nodes = (
(367,563,l),
(467,484,o),
(577,365,o),
(634,280,c),
(652,304,l),
(596,388,o),
(486,503,o),
(384,584,c)
);
},
{
closed = 1;
nodes = (
(755,244,l),
(824,147,o),
(895,21,o),
(924,-68,c),
(952,-52,l),
(922,34,o),
(853,160,o),
(780,256,c)
);
},
{
closed = 1;
nodes = (
(334,-19,l),
(478,-6,o),
(689,13,o),
(896,36,c),
(897,64,l),
(683,42,o),
(469,24,o),
(329,12,c)
);
},
{
closed = 1;
nodes = (
(825,642,l),
(727,448,o),
(556,178,o),
(435,16,c),
(458,2,l),
(583,163,o),
(746,429,o),
(857,630,c)
);
}
);
width = 1000;
},
{
layerId = "94DDBC6A-1627-4027-9125-871D02041BCD";
shapes = (
{
closed = 1;
nodes = (
(145,750,l),
(145,617,l),
(245,617,l),
(244,308,l),
(144,308,l),
(144,174,l),
(380,174,l),
(381,750,l)
);
},
{
closed = 1;
nodes = (
(60,750,l),
(60,88,l),
(193,88,l),
(193,750,l)
);
},
{
closed = 1;
nodes = (
(577,857,l),
(545,742,o),
(476,602,o),
(419,508,c),
(532,445,l),
(590,534,o),
(667,668,o),
(728,803,c)
);
},
{
closed = 1;
nodes = (
(337,509,l),
(431,422,o),
(556,291,o),
(604,199,c),
(700,346,l),
(642,433,o),
(510,556,o),
(417,637,c)
);
},
{
closed = 1;
nodes = (
(715,283,l),
(768,164,o),
(822,9,o),
(837,-94,c),
(985,-44,l),
(966,62,o),
(906,210,o),
(850,324,c)
);
},
{
closed = 1;
nodes = (
(357,-60,l),
(502,-43,o),
(703,-21,o),
(891,4,c),
(892,146,l),
(695,121,o),
(477,97,o),
(332,87,c)
);
},
{
closed = 1;
nodes = (
(765,679,l),
(672,467,o),
(524,210,o),
(391,47,c),
(508,-18,l),
(636,146,o),
(799,398,o),
(915,634,c)
);
}
);
width = 1000;
}
);
note = cid11946;
unicode = 21510;
}
{
color = 9;
glyphname = uni5414;
layers = (
{
layerId = m01;
shapes = (
{
closed = 1;
nodes = (
(653,831,l),
(653,143,l),
(682,143,l),
(682,831,l)
);
},
{
closed = 1;
nodes = (
(320,408,l),
(332,381,l),
(892,616,l),
(879,642,l)
);
},
{
closed = 1;
nodes = (
(437,741,l),
(437,52,ls),
(437,-27,o),
(466,-45,o),
(559,-45,cs),
(838,-45,ls),
(930,-45,o),
(943,-4,o),
(951,130,c),
(942,131,o),
(930,136,o),
(921,143,c),
(915,16,o),
(905,-16,o),
(842,-16,cs),
(554,-16,ls),
(482,-16,o),
(467,-1,o),
(467,50,cs),
(467,741,l)
);
},
{
closed = 1;
nodes = (
(876,635,l),
(876,457,o),
(874,283,o),
(866,250,cs),
(859,222,o),
(846,217,o),
(827,217,cs),
(815,217,o),
(772,217,o),
(742,219,c),
(747,210,o),
(750,198,o),
(752,188,c),
(775,188,o),
(812,188,o),
(836,189,cs),
(864,190,o),
(885,203,o),
(893,238,cs),
(902,275,o),
(906,454,o),
(906,639,c),
(908,647,l),
(886,657,l),
(880,650,l),
(866,635,l)
);
},
{
closed = 1;
nodes = (
(95,672,l),
(95,643,l),
(284,643,l),
(284,199,l),
(95,199,l),
(95,169,l),
(314,169,l),
(314,672,l)
);
},
{
closed = 1;
nodes = (
(84,672,l),
(84,81,l),
(114,81,l),
(114,672,l)
);
}
);
width = 1000;
},
{
layerId = "94DDBC6A-1627-4027-9125-871D02041BCD";
shapes = (
{
closed = 1;
nodes = (
(608,855,l),
(608,144,l),
(744,144,l),
(744,855,l)
);
},
{
closed = 1;
nodes = (
(305,457,l),
(359,329,l),
(881,551,l),
(829,675,l)
);
},
{
closed = 1;
nodes = (
(416,756,l),
(416,120,ls),
(416,-35,o),
(457,-77,o),
(606,-77,cs),
(802,-77,ls),
(926,-77,o),
(968,-28,o),
(985,116,c),
(946,124,o),
(890,147,o),
(859,168,c),
(850,72,o),
(840,52,o),
(788,52,cs),
(620,52,ls),
(561,52,o),
(554,59,o),
(554,120,cs),
(554,756,l)
);
},
{
closed = 1;
nodes = (
(800,660,l),
(800,427,o),
(800,336,o),
(798,320,cs),
(796,305,o),
(791,302,o),
(781,302,cs),
(773,302,o),
(756,302,o),
(743,303,c),
(758,274,o),
(769,219,o),
(773,183,c),
(808,183,o),
(852,184,o),
(883,201,cs),
(914,218,o),
(931,245,o),
(933,294,cs),
(935,336,o),
(938,440,o),
(938,633,c),
(943,656,l),
(842,692,l),
(816,675,l),
(793,660,l)
);
},
{
closed = 1;
nodes = (
(126,706,l),
(126,577,l),
(217,577,l),
(217,257,l),
(126,257,l),
(126,129,l),
(337,129,l),
(337,706,l)
);
},
{
closed = 1;
nodes = (
(60,706,l),
(60,44,l),
(176,44,l),
(176,706,l)
);
}
);
width = 1000;
}
);
note = cid11965;
unicode = 21524;
}
{
glyphname = uni5423;
layers = (
{
layerId = m01;
shapes = (
{
closed = 1;
nodes = (
(100,694,l),
(100,665,l),
(300,665,l),
(300,220,l),
(100,220,l),
(100,190,l),
(330,190,l),
(330,694,l)
);
},
{
closed = 1;
nodes = (
(84,694,l),
(84,103,l),
(114,103,l),
(114,694,l)
);
},
{
closed = 1;
nodes = (
(561,599,l),
(561,10,ls),
(561,-46,o),
(578,-58,o),
(636,-58,cs),
(650,-58,o),
(770,-58,o),
(784,-58,cs),
(843,-58,o),
(852,-21,o),
(856,108,c),
(847,110,o),
(835,115,o),
(826,122,c),
(823,-3,o),
(818,-28,o),
(784,-28,cs),
(760,-28,o),
(653,-28,o),
(635,-28,cs),
(598,-28,o),
(591,-21,o),
(591,9,cs),
(591,599,l)
);
},
{
closed = 1;
nodes = (
(542,793,l),
(626,744,o),
(722,668,o),
(769,614,c),
(789,637,l),
(742,690,o),
(646,763,o),
(561,812,c)
);
},
{
closed = 1;
nodes = (
(451,501,l),
(441,378,o),
(419,234,o),
(358,152,c),
(385,139,l),
(446,223,o),
(467,371,o),
(478,496,c)
);
},
{
closed = 1;
nodes = (
(815,504,l),
(866,395,o),
(911,252,o),
(926,158,c),
(954,165,l),
(939,259,o),
(894,401,o),
(841,511,c)
);
}
);
vertWidth = 1000;
width = 1000;
},
{
layerId = "94DDBC6A-1627-4027-9125-871D02041BCD";
shapes = (
{
closed = 1;
nodes = (
(141,739,l),
(141,610,l),
(231,610,l),
(231,289,l),
(141,289,l),
(141,160,l),
(359,160,l),
(359,739,l)
);
},
{
closed = 1;
nodes = (
(60,739,l),
(60,77,l),
(186,77,l),
(186,739,l)
);
},
{
closed = 1;
nodes = (
(531,619,l),
(531,112,ls),
(531,-26,o),
(561,-70,o),
(675,-70,cs),
(708,-70,o),
(740,-70,o),
(773,-70,cs),
(874,-70,o),
(908,-11,o),
(920,165,c),
(883,174,o),
(825,199,o),
(794,223,c),
(790,89,o),
(785,61,o),
(759,61,cs),
(739,61,o),
(719,61,o),
(699,61,cs),
(674,61,o),
(671,67,o),
(671,111,cs),
(671,619,l)
);
},
{
closed = 1;
nodes = (
(533,765,l),
(601,716,o),
(682,643,o),
(716,592,c),
(820,688,l),
(781,740,o),
(696,807,o),
(629,851,c)
);
},
{
closed = 1;
nodes = (
(397,542,l),
(389,422,o),
(372,301,o),
(333,216,c),
(457,176,l),
(495,258,o),
(510,396,o),
(519,518,c)
);
},
{
closed = 1;
nodes = (
(760,536,l),
(805,437,o),
(844,305,o),
(854,219,c),
(987,263,l),
(973,350,o),
(932,477,o),
(883,576,c)
);
}
);
vertWidth = 1000;
width = 1000;
}
);
note = cid11986;
unicode = 21539;
}
{
glyphname = uni5493;
layers = (
{
layerId = m01;
shapes = (
{
closed = 1;
nodes = (
(326,719,l),
(98,719,l),
(98,690,l),
(297,690,l),
(297,230,l),
(98,230,l),
(98,201,l),
(326,201,l)
);
},
{
closed = 1;
nodes = (
(112,719,l),
(83,719,l),
(83,97,l),
(112,97,l)
);
},
{
closed = 1;
nodes = (
(922,770,l),
(347,770,l),
(347,741,l),
(922,741,l)
);
},
{
closed = 1;
nodes = (
(494,765,l),
(476,530,o),
(439,172,o),
(410,-16,c),
(441,-16,l),
(467,170,o),
(502,525,o),
(523,765,c)
);
},
{
closed = 1;
nodes = (
(317,-46,l),
(431,-25,o),
(587,4,o),
(735,32,c),
(734,59,l),
(576,30,o),
(414,1,o),
(306,-17,c)
);
},
{
closed = 1;
nodes = (
(547,410,l),
(597,338,o),
(649,241,o),
(670,178,c),
(697,189,l),
(675,252,o),
(623,348,o),
(572,420,c)
);
},
{
closed = 1;
nodes = (
(752,561,l),
(759,169,o),
(770,-71,o),
(892,-71,cs),
(938,-71,o),
(945,-33,o),
(950,99,c),
(943,101,o),
(931,107,o),
(925,112,c),
(922,21,o),
(916,-43,o),
(893,-43,cs),
(800,-43,o),
(786,226,o),
(782,561,c)
);
},
{
closed = 1;
nodes = (
(758,561,l),
(494,561,l),
(491,531,l),
(758,531,l)
);
}
);
width = 1000;
},
{
layerId = "94DDBC6A-1627-4027-9125-871D02041BCD";
shapes = (
{
closed = 1;
nodes = (
(337,762,l),
(140,762,l),
(140,633,l),
(215,633,l),
(215,272,l),
(140,272,l),
(140,143,l),
(337,143,l)
);
},
{
closed = 1;
nodes = (
(176,762,l),
(58,762,l),
(58,73,l),
(176,73,l)
);
},
{
closed = 1;
nodes = (
(949,808,l),
(359,808,l),
(359,679,l),
(949,679,l)
);
},
{
closed = 1;
nodes = (
(446,734,l),
(439,493,o),
(415,192,o),
(388,1,c),
(532,0,l),
(553,186,o),
(574,488,o),
(585,734,c)
);
},
{
closed = 1;
nodes = (
(342,-83,l),
(456,-68,o),
(607,-49,o),
(748,-28,c),
(743,94,l),
(587,76,o),
(420,58,o),
(310,48,c)
);
},
{
closed = 1;
nodes = (
(548,373,l),
(576,299,o),
(601,201,o),
(605,137,c),
(726,173,l),
(718,237,o),
(693,333,o),
(661,406,c)
);
},
{
closed = 1;
nodes = (
(721,588,l),
(722,273,o),
(729,-94,o),
(881,-94,cs),
(958,-94,o),
(982,-31,o),
(991,105,c),
(965,125,o),
(934,160,o),
(909,194,c),
(908,101,o),
(903,47,o),
(894,47,cs),
(859,47,o),
(853,350,o),
(857,588,c)
);
},
{
closed = 1;
nodes = (
(793,588,l),
(513,588,l),
(502,465,l),
(793,465,l)
);
}
);
width = 1000;
}
);
note = cid12154;
unicode = 21651;
}
{
glyphname = uni54A3;
layers = (
{
layerId = m01;
shapes = (
{
closed = 1;
nodes = (
(331,721,l),
(98,721,l),
(98,692,l),
(302,692,l),
(302,247,l),
(98,247,l),
(98,218,l),
(331,218,l)
);
},
{
closed = 1;
nodes = (
(113,721,l),
(84,721,l),
(84,126,l),
(113,126,l)
);
},
{
closed = 1;
nodes = (
(950,440,l),
(363,440,l),
(363,411,l),
(950,411,l)
);
},
{
closed = 1;
nodes = (
(655,830,l),
(625,830,l),
(625,428,l),
(655,428,l)
);
},
{
closed = 1;
nodes = (
(525,411,l),
(512,200,o),
(476,31,o),
(295,-52,c),
(302,-57,o),
(313,-66,o),
(317,-73,c),
(501,15,o),
(540,187,o),
(555,411,c)
);
},
{
closed = 1;
nodes = (
(729,412,l),
(700,412,l),
(700,4,ls),
(700,-46,o),
(715,-56,o),
(768,-56,cs),
(779,-56,o),
(872,-56,o),
(885,-56,cs),
(939,-56,o),
(948,-21,o),
(952,116,c),
(942,119,o),
(931,124,o),
(922,131,c),
(919,-5,o),
(915,-26,o),
(883,-26,cs),
(863,-26,o),
(783,-26,o),
(768,-26,cs),
(735,-26,o),
(729,-20,o),
(729,4,cs)
);
},
{
closed = 1;
nodes = (
(405,765,l),
(447,682,o),
(487,573,o),
(500,502,c),
(528,511,l),
(516,581,o),
(476,690,o),
(431,772,c)
);
},
{
closed = 1;
nodes = (
(856,779,l),
(828,699,o),
(777,580,o),
(738,511,c),
(762,500,l),
(802,570,o),
(851,682,o),
(885,768,c)
);
}
);
vertWidth = 1000;
width = 1000;
},
{
layerId = "94DDBC6A-1627-4027-9125-871D02041BCD";
name = Heavy;
shapes = (
{
closed = 1;
nodes = (
(366,753,l),
(144,753,l),
(144,622,l),
(241,622,l),
(241,295,l),
(144,295,l),
(144,163,l),
(366,163,l)
);
},
{
closed = 1;
nodes = (
(187,753,l),
(62,753,l),
(62,82,l),
(187,82,l)
);
},
{
closed = 1;
nodes = (
(966,475,l),
(385,475,l),
(385,344,l),
(966,344,l)
);
},
{
closed = 1;
nodes = (
(736,837,l),
(598,837,l),
(598,414,l),
(736,414,l)
);
},
{
closed = 1;
nodes = (
(486,360,l),
(477,206,o),
(463,91,o),
(287,23,c),
(318,-5,o),
(356,-60,o),
(372,-97,c),
(581,-3,o),
(612,157,o),
(623,360,c)
);
},
{
closed = 1;
nodes = (
(807,354,l),
(669,354,l),
(669,79,ls),
(669,-43,o),
(692,-86,o),
(795,-86,cs),
(814,-86,o),
(840,-86,o),
(859,-86,cs),
(944,-86,o),
(977,-39,o),
(988,131,c),
(952,141,o),
(892,164,o),
(866,187,c),
(863,61,o),
(859,42,o),
(844,42,cs),
(839,42,o),
(826,42,o),
(821,42,cs),
(808,42,o),
(807,46,o),
(807,80,cs)
);
},
{
closed = 1;
nodes = (
(390,758,l),
(419,681,o),
(443,578,o),
(447,512,c),
(576,550,l),
(569,617,o),
(543,716,o),
(511,793,c)
);
},
{
closed = 1;
nodes = (
(818,804,l),
(807,725,o),
(781,621,o),
(758,553,c),
(878,517,l),
(904,579,o),
(935,675,o),
(964,766,c)
);
}
);
vertWidth = 1000;
width = 1000;
}
);
note = cid12175;
unicode = 21667;
}
{
glyphname = uni54CB;
layers = (
{
layerId = m01;
shapes = (
{
closed = 1;
nodes = (
(504,426,l),
(517,400,l),
(901,587,l),
(888,613,l)
);
},
{
closed = 1;
nodes = (
(882,604,l),
(882,448,o),
(880,285,o),
(876,260,cs),
(872,239,o),
(864,235,o),
(851,235,cs),
(842,235,o),
(816,235,o),
(797,236,c),
(802,228,o),
(805,217,o),
(807,207,c),
(822,207,o),
(845,207,o),
(862,208,cs),
(881,209,o),
(899,220,o),
(904,248,cs),
(910,277,o),
(911,446,o),
(911,608,c),
(913,614,l),
(892,625,l),
(886,618,l),
(872,604,l)
);
},
{
closed = 1;
nodes = (
(290,531,l),
(290,502,l),
(529,502,l),
(529,531,l)
);
},
{
closed = 1;
nodes = (
(398,770,l),
(398,122,l),
(427,122,l),
(427,770,l)
);
},
{
closed = 1;
nodes = (
(284,57,l),
(359,85,o),
(454,124,o),
(545,161,c),
(539,188,l),
(438,149,o),
(337,109,o),
(269,84,c)
);
},
{
closed = 1;
nodes = (
(730,831,l),
(730,143,l),
(760,143,l),
(760,831,l)
);
},
{
closed = 1;
nodes = (
(573,741,l),
(573,36,ls),
(573,-30,o),
(594,-45,o),
(667,-45,cs),
(866,-45,ls),
(937,-45,o),
(947,-8,o),
(952,114,c),
(943,117,o),
(931,122,o),
(922,129,c),
(918,12,o),
(912,-16,o),
(868,-16,cs),
(665,-16,ls),
(613,-16,o),
(602,-6,o),
(602,35,cs),
(602,741,l)
);
},
{
closed = 1;
nodes = (
(98,720,l),
(98,691,l),
(237,691,l),
(237,228,l),
(98,228,l),
(98,198,l),
(266,198,l),
(266,720,l)
);
},
{
closed = 1;
nodes = (
(84,720,l),
(84,112,l),
(113,112,l),
(113,720,l)
);
}
);
width = 1000;
},
{
layerId = "94DDBC6A-1627-4027-9125-871D02041BCD";
shapes = (
{
closed = 1;
nodes = (
(478,498,l),
(531,374,l),
(930,551,l),
(878,672,l)
);
},
{
closed = 1;
nodes = (
(856,660,l),
(856,428,o),
(856,332,o),
(853,319,cs),
(850,304,o),
(847,302,o),
(836,302,cs),
(827,302,o),
(817,302,o),
(807,303,c),
(822,280,o),
(831,235,o),
(833,203,c),
(861,203,o),
(891,204,o),
(916,215,cs),
(950,230,o),
(966,259,o),
(967,311,cs),
(968,347,o),
(970,473,o),
(970,640,c),
(974,659,l),
(891,690,l),
(870,675,l),
(848,660,l)
);
},
{
closed = 1;
nodes = (
(301,586,l),
(301,453,l),
(522,453,l),
(522,586,l)
);
},
{
closed = 1;
nodes = (
(355,810,l),
(355,139,l),
(467,139,l),
(467,810,l)
);
},
{
closed = 1;
nodes = (
(334,24,l),
(402,54,o),
(481,89,o),
(555,125,c),
(530,246,l),
(438,215,o),
(344,183,o),
(281,166,c)
);
},
{
closed = 1;
nodes = (
(709,854,l),
(709,143,l),
(816,143,l),
(816,854,l)
);
},
{
closed = 1;
nodes = (
(556,755,l),
(556,95,ls),
(556,-35,o),
(587,-70,o),
(701,-70,cs),
(848,-70,ls),
(942,-70,o),
(975,-26,o),
(988,98,c),
(956,105,o),
(910,125,o),
(884,143,c),
(879,58,o),
(872,38,o),
(837,38,cs),
(716,38,ls),
(676,38,o),
(671,45,o),
(671,95,cs),
(671,755,l)
);
},
{
closed = 1;
nodes = (
(122,757,l),
(122,628,l),
(182,628,l),
(182,267,l),
(122,267,l),
(122,138,l),
(280,138,l),
(280,757,l)
);
},
{
closed = 1;
nodes = (
(55,757,l),
(55,68,l),
(151,68,l),
(151,757,l)
);
}
);
width = 1000;
}
);
note = cid12237;
unicode = 21707;
}
{
glyphname = uni553F;
layers = (
{
layerId = m01;
shapes = (
{
closed = 1;
nodes = (
(314,720,l),
(98,720,l),
(98,691,l),
(284,691,l),
(284,246,l),
(98,246,l),
(98,217,l),
(314,217,l)
);
},
{
closed = 1;
nodes = (
(113,720,l),
(84,720,l),
(84,130,l),
(113,130,l)
);
},
{
closed = 1;
nodes = (
(525,833,l),
(483,733,o),
(413,638,o),
(337,574,c),
(345,570,o),
(357,559,o),
(361,554,c),
(435,621,o),
(508,720,o),
(554,825,c)
);
},
{
closed = 1;
nodes = (
(609,700,l),
(558,565,o),
(466,450,o),
(357,376,c),
(364,371,o),
(376,360,o),
(380,355,c),
(487,433,o),
(583,551,o),
(637,693,c)
);
},
{
closed = 1;
nodes = (
(769,700,l),
(725,541,o),
(642,410,o),
(528,327,c),
(536,322,o),
(548,311,o),
(552,306,c),
(665,394,o),
(751,527,o),
(798,694,c)
);
},
{
closed = 1;
nodes = (
(908,704,l),
(471,704,l),
(454,674,l),
(908,674,l)
);
},
{
closed = 1;
nodes = (
(897,704,l),
(897,697,ls),
(879,456,o),
(862,366,o),
(836,341,cs),
(828,332,o),
(819,331,o),
(802,331,cs),
(785,331,o),
(738,332,o),
(688,336,c),
(693,328,o),
(696,317,o),
(697,308,c),
(741,304,o),
(785,303,o),
(808,304,cs),
(832,304,o),
(847,309,o),
(861,323,cs),
(890,353,o),
(907,438,o),
(925,684,cs),
(926,690,o),
(927,704,o),
(927,704,c)
);
},
{
closed = 1;
nodes = (
(529,204,l),
(500,204,l),
(500,-16,ls),
(500,-64,o),
(519,-72,o),
(584,-72,cs),
(599,-72,o),
(743,-72,o),
(758,-72,cs),
(816,-72,o),
(826,-49,o),
(830,51,c),
(821,53,o),
(810,58,o),
(802,64,c),
(799,-30,o),
(793,-43,o),
(756,-43,cs),
(726,-43,o),
(604,-43,o),
(583,-43,cs),
(537,-43,o),
(529,-38,o),
(529,-16,cs)
);
},
{
closed = 1;
nodes = (
(405,190,l),
(393,106,o),
(366,25,o),
(303,-17,c),
(327,-36,l),
(394,10,o),
(420,97,o),
(432,184,c)
);
},
{
closed = 1;
nodes = (
(539,258,l),
(595,224,o),
(659,171,o),
(690,133,c),
(711,156,l),
(680,192,o),
(616,243,o),
(560,278,c)
);
},
{
closed = 1;
nodes = (
(786,184,l),
(847,123,o),
(910,35,o),
(934,-22,c),
(960,-5,l),
(935,52,o),
(872,138,o),
(811,199,c)
);
}
);
vertWidth = 1000;
width = 1000;
},
{
layerId = "94DDBC6A-1627-4027-9125-871D02041BCD";
shapes = (
{
closed = 1;
nodes = (
(339,757,l),
(142,757,l),
(142,628,l),
(217,628,l),
(217,301,l),
(142,301,l),
(142,172,l),
(339,172,l)
);
},
{
closed = 1;
nodes = (
(178,757,l),
(60,757,l),
(60,95,l),
(178,95,l)
);
},
{
closed = 1;
nodes = (
(462,855,l),
(435,761,o),
(381,672,o),
(312,617,c),
(342,600,o),
(396,564,o),
(420,543,c),
(489,609,o),
(552,714,o),
(588,827,c)
);
},
{
closed = 1;
nodes = (
(541,690,l),
(505,579,o),
(431,481,o),
(337,423,c),
(366,404,o),
(416,363,o),
(438,341,c),
(533,412,o),
(619,528,o),
(665,662,c)
);
},
{
closed = 1;
nodes = (
(697,688,l),
(664,550,o),
(594,427,o),
(495,354,c),
(525,338,o),
(580,301,o),
(603,280,c),
(700,366,o),
(779,504,o),
(822,663,c)
);
},
{
closed = 1;
nodes = (
(884,752,l),
(505,752,l),
(436,631,l),
(884,631,l)
);
},
{
closed = 1;
nodes = (
(834,752,l),
(834,732,l),
(821,533,o),
(803,458,o),
(787,438,cs),
(777,427,o),
(770,425,o),
(758,425,cs),
(746,425,o),
(729,425,o),
(707,428,c),
(727,392,o),
(739,337,o),
(741,296,c),
(778,296,o),
(811,297,o),
(832,302,cs),
(858,307,o),
(878,317,o),
(899,344,cs),
(930,379,o),
(949,478,o),
(967,699,cs),
(969,716,o),
(971,752,o),
(971,752,c)
);
},
{
closed = 1;
nodes = (
(604,185,l),
(469,185,l),
(469,61,ls),
(469,-48,o),
(493,-85,o),
(608,-85,cs),
(639,-85,o),
(664,-85,o),
(695,-85,cs),
(775,-85,o),
(810,-57,o),
(826,50,c),
(788,59,o),
(732,78,o),
(708,97,c),
(704,42,o),
(700,33,o),
(680,33,cs),
(662,33,o),
(648,33,o),
(630,33,cs),
(607,33,o),
(604,36,o),
(604,63,cs)
);
},
{
closed = 1;
nodes = (
(349,189,l),
(337,121,o),
(304,50,o),
(264,7,c),
(375,-65,l),
(416,-13,o),
(451,72,o),
(467,155,c)
);
},
{
closed = 1;
nodes = (
(498,227,l),
(560,203,o),
(637,161,o),
(674,129,c),
(747,226,l),
(706,258,o),
(627,295,o),
(566,315,c)
);
},
{
closed = 1;
nodes = (
(734,149,l),
(790,88,o),
(835,7,o),
(849,-59,c),
(975,-3,l),
(961,62,o),
(909,142,o),
(850,202,c)
);
}
);
vertWidth = 1000;
width = 1000;
}
);
note = cid12410;
unicode = 21823;
}
{
glyphname = uni5555;
layers = (
{
layerId = m01;
shapes = (
{
closed = 1;
nodes = (
(423,129,l),
(423,99,l),
(765,99,l),
(765,129,l)
);
},
{
closed = 1;
nodes = (
(748,278,l),
(748,49,l),
(778,49,l),
(778,278,l)
);
},
{
closed = 1;
nodes = (
(408,278,l),
(408,26,l),
(438,26,l),
(438,278,l)
);
},
{
closed = 1;
nodes = (
(433,686,l),
(433,657,l),
(906,657,l),
(906,686,l)
);
},
{
closed = 1;
nodes = (
(487,831,l),
(447,714,o),
(377,595,o),
(306,523,c),
(313,518,o),
(326,507,o),
(331,502,c),
(402,580,o),
(473,704,o),
(516,824,c)
);
},
{
closed = 1;
nodes = (
(467,522,l),
(467,492,l),
(776,492,l),
(776,522,l)
);
},
{
closed = 1;
nodes = (
(897,686,l),
(897,677,l),
(887,175,o),
(874,6,o),
(845,-29,cs),
(835,-42,o),
(825,-44,o),
(808,-44,cs),
(786,-44,o),
(729,-43,o),
(667,-38,c),
(672,-47,o),
(674,-59,o),
(675,-69,c),
(727,-72,o),
(781,-73,o),
(811,-73,cs),
(839,-73,o),
(857,-66,o),
(872,-45,cs),
(904,0,o),
(916,155,o),
(926,663,c),
(926,686,l)
);
},
{
closed = 1;
nodes = (
(356,357,l),
(356,327,l),
(815,327,l),
(815,357,l)
);
},
{
closed = 1;
nodes = (
(579,510,l),
(579,117,l),
(609,117,l),
(609,510,l)
);
},
{
closed = 1;
nodes = (
(499,618,l),
(474,544,o),
(430,463,o),
(384,410,c),
(392,406,o),
(403,398,o),
(409,392,c),
(454,448,o),
(501,532,o),
(530,612,c)
);
},
{
closed = 1;
nodes = (
(100,721,l),
(100,692,l),
(281,692,l),
(281,247,l),
(100,247,l),
(100,218,l),
(310,218,l),
(310,721,l)
);
},
{
closed = 1;
nodes = (
(83,721,l),
(83,113,l),
(112,113,l),
(112,721,l)
);
}
);
width = 1000;
},
{
layerId = "94DDBC6A-1627-4027-9125-871D02041BCD";
shapes = (
{
closed = 1;
nodes = (
(448,168,l),
(448,68,l),
(734,68,l),
(734,168,l)
);
},
{
closed = 1;
nodes = (
(678,260,l),
(678,44,l),
(783,44,l),
(783,260,l)
);
},
{
closed = 1;
nodes = (
(396,260,l),
(396,12,l),
(500,12,l),
(500,260,l)
);
},
{
closed = 1;
nodes = (
(481,733,l),
(481,612,l),
(873,612,l),
(873,733,l)
);
},
{
closed = 1;
nodes = (
(459,856,l),
(427,748,o),
(362,645,o),
(280,584,c),
(312,567,o),
(369,529,o),
(394,507,c),
(475,580,o),
(548,698,o),
(591,827,c)
);
},
{
closed = 1;
nodes = (
(501,536,l),
(501,435,l),
(770,435,l),
(770,536,l)
);
},
{
closed = 1;
nodes = (
(821,733,l),
(821,701,l),
(819,241,o),
(817,76,o),
(797,43,cs),
(788,28,o),
(779,23,o),
(759,23,cs),
(738,23,o),
(700,23,o),
(660,27,c),
(680,-7,o),
(695,-60,o),
(696,-94,c),
(743,-95,o),
(794,-95,o),
(829,-89,cs),
(864,-83,o),
(892,-68,o),
(916,-28,cs),
(946,21,o),
(948,183,o),
(951,670,c),
(951,733,l)
);
},
{
closed = 1;
nodes = (
(380,392,l),
(380,289,l),
(793,289,l),
(793,392,l)
);
},
{
closed = 1;
nodes = (
(534,480,l),
(534,111,l),
(645,111,l),
(645,480,l)
);
},
{
closed = 1;
nodes = (
(484,606,l),
(463,546,o),
(421,484,o),
(375,445,c),
(402,431,o),
(440,401,o),
(459,378,c),
(510,426,o),
(560,504,o),
(589,581,c)
);
},
{
closed = 1;
nodes = (
(130,758,l),
(130,624,l),
(223,624,l),
(223,297,l),
(130,297,l),
(130,163,l),
(345,163,l),
(345,758,l)
);
},
{
closed = 1;
nodes = (
(59,758,l),
(59,87,l),
(178,87,l),
(178,758,l)
);
}
);
width = 1000;
}
);
note = cid12446;
unicode = 21845;
}
{
glyphname = uni5565;
layers = (
{
layerId = m01;
shapes = (
{
closed = 1;
nodes = (
(709,681,o),
(831,559,o),
(941,485,c),
(945,491,o),
(954,502,o),
(960,509,c),
(852,577,o),
(725,701,o),
(651,827,c),
(621,827,l),
(564,707,o),
(445,579,o),
(324,501,c),
(330,494,o),
(338,485,o),
(342,479,c),
(464,560,o),
(579,688,o),
(638,798,c)
);
},
{
closed = 1;
nodes = (
(468,560,l),
(468,530,l),
(813,530,l),
(813,560,l)
);
},
{
closed = 1;
nodes = (
(364,402,l),
(364,373,l),
(929,373,l),
(929,402,l)
);
},
{
closed = 1;
nodes = (
(416,264,l),
(416,-71,l),
(445,-71,l),
(445,234,l),
(837,234,l),
(837,-68,l),
(867,-68,l),
(867,264,l)
);
},
{
closed = 1;
nodes = (
(430,4,l),
(430,-25,l),
(859,-25,l),
(859,4,l)
);
},
{
closed = 1;
nodes = (
(625,544,l),
(625,253,l),
(655,253,l),
(655,544,l)
);
},
{
closed = 1;
nodes = (
(99,714,l),
(99,684,l),
(286,684,l),
(286,239,l),
(99,239,l),
(99,210,l),
(315,210,l),
(315,714,l)
);
},
{
closed = 1;
nodes = (
(84,714,l),
(84,123,l),
(113,123,l),
(113,714,l)
);
}
);
width = 1000;
},
{
layerId = "94DDBC6A-1627-4027-9125-871D02041BCD";
shapes = (
{
closed = 1;
nodes = (
(706,629,o),
(817,519,o),
(915,460,c),
(934,500,o),
(962,548,o),
(988,581,c),
(881,631,o),
(776,738,o),
(704,849,c),
(581,849,l),
(530,754,o),
(422,632,o),
(314,573,c),
(338,544,o),
(367,494,o),
(382,459,c),
(490,523,o),
(592,633,o),
(647,722,c)
);
},
{
closed = 1;
nodes = (
(492,573,l),
(492,455,l),
(821,455,l),
(821,573,l)
);
},
{
closed = 1;
nodes = (
(362,412,l),
(362,289,l),
(952,289,l),
(952,412,l)
);
},
{
closed = 1;
nodes = (
(419,241,l),
(419,-93,l),
(547,-93,l),
(547,123,l),
(767,123,l),
(767,-90,l),
(901,-90,l),
(901,241,l)
);
},
{
closed = 1;
nodes = (
(487,50,l),
(487,-67,l),
(848,-67,l),
(848,50,l)
);
},
{
closed = 1;
nodes = (
(592,536,l),
(592,194,l),
(723,194,l),
(723,536,l)
);
},
{
closed = 1;
nodes = (
(135,757,l),
(135,628,l),
(214,628,l),
(214,301,l),
(135,301,l),
(135,172,l),
(333,172,l),
(333,757,l)
);
},
{
closed = 1;
nodes = (
(56,757,l),
(56,95,l),
(174,95,l),
(174,757,l)
);
}
);
width = 1000;
}
);
note = cid12473;
unicode = 21861;
}
{
glyphname = uni55E6;
layers = (
{
layerId = m01;
shapes = (
{
closed = 1;
nodes = (
(382,728,l),
(382,699,l),
(899,699,l),
(899,728,l)
);
},
{
closed = 1;
nodes = (
(617,831,l),
(617,562,l),
(646,562,l),
(646,831,l)
);
},
{
closed = 1;
nodes = (
(617,207,l),
(617,-70,l),
(646,-70,l),
(646,207,l)
);
},
{
closed = 1;
nodes = (
(345,577,l),
(345,429,l),
(374,429,l),
(374,548,l),
(903,548,l),
(903,429,l),
(932,429,l),
(932,577,l)
);
},
{
closed = 1;
nodes = (
(490,144,l),
(458,79,o),
(405,17,o),
(348,-26,c),
(356,-31,o),
(369,-40,o),
(374,-44,c),
(427,0,o),
(484,67,o),
(520,136,c)
);
},
{
closed = 1;
nodes = (
(746,132,l),
(802,79,o),
(865,5,o),
(896,-42,c),
(919,-23,l),
(889,22,o),
(824,95,o),
(768,148,c)
);
},
{
closed = 1;
nodes = (
(615,528,l),
(576,476,o),
(524,418,o),
(480,377,c),
(505,364,l),
(549,404,o),
(602,462,o),
(643,513,c)
);
},
{
closed = 1;
nodes = (
(758,469,l),
(679,373,o),
(574,270,o),
(487,203,c),
(509,188,l),
(596,258,o),
(703,360,o),
(786,454,c)
);
},
{
closed = 1;
nodes = (
(407,403,l),
(478,362,o),
(546,310,o),
(582,268,c),
(605,285,l),
(566,330,o),
(497,383,o),
(427,422,c)
);
},
{
closed = 1;
nodes = (
(746,306,l),
(811,259,o),
(877,191,o),
(906,140,c),
(929,158,l),
(900,208,o),
(832,276,o),
(769,322,c)
);
},
{
closed = 1;
nodes = (
(366,177,l),
(504,182,o),
(696,192,o),
(866,203,c),
(868,229,l),
(695,220,o),
(500,212,o),
(360,207,c)
);
},
{
closed = 1;
nodes = (
(99,721,l),
(99,692,l),
(274,692,l),
(274,247,l),
(99,247,l),
(99,218,l),
(303,218,l),
(303,721,l)
);
},
{
closed = 1;
nodes = (
(84,721,l),
(84,126,l),
(113,126,l),
(113,721,l)
);
}
);
width = 1000;
},
{
layerId = "94DDBC6A-1627-4027-9125-871D02041BCD";
shapes = (
{
closed = 1;
nodes = (
(383,791,l),
(383,677,l),
(933,677,l),
(933,791,l)
);
},
{
closed = 1;
nodes = (
(577,855,l),
(577,585,l),
(721,585,l),
(721,855,l)
);
},
{
closed = 1;
nodes = (
(586,226,l),
(586,-94,l),
(720,-94,l),
(720,226,l)
);
},
{
closed = 1;
nodes = (
(351,640,l),
(351,455,l),
(469,455,l),
(469,534,l),
(843,534,l),
(843,455,l),
(966,455,l),
(966,640,l)
);
},
{
closed = 1;
nodes = (
(445,139,l),
(422,90,o),
(380,38,o),
(336,4,c),
(366,-14,o),
(417,-55,o),
(441,-78,c),
(488,-35,o),
(541,36,o),
(573,102,c)
);
},
{
closed = 1;
nodes = (
(726,96,l),
(772,45,o),
(828,-26,o),
(851,-71,c),
(972,-11,l),
(944,35,o),
(885,103,o),
(839,150,c)
);
},
{
closed = 1;
nodes = (
(597,560,l),
(567,509,o),
(523,453,o),
(485,415,c),
(569,371,l),
(608,403,o),
(666,453,o),
(718,501,c)
);
},
{
closed = 1;
nodes = (
(757,497,l),
(681,409,o),
(575,310,o),
(480,242,c),
(567,192,l),
(666,259,o),
(785,352,o),
(876,435,c)
);
},
{
closed = 1;
nodes = (
(393,392,l),
(465,346,o),
(536,291,o),
(578,248,c),
(667,334,l),
(622,377,o),
(546,431,o),
(469,475,c)
);
},
{
closed = 1;
nodes = (
(752,320,l),
(798,262,o),
(840,189,o),
(862,129,c),
(977,184,l),
(957,238,o),
(905,313,o),
(859,369,c)
);
},
{
closed = 1;
nodes = (
(387,139,l),
(510,147,o),
(710,163,o),
(905,181,c),
(902,293,l),
(706,279,o),
(496,266,o),
(358,260,c)
);
},
{
closed = 1;
nodes = (
(138,757,l),
(138,628,l),
(208,628,l),
(208,301,l),
(138,301,l),
(138,173,l),
(328,173,l),
(328,757,l)
);
},
{
closed = 1;
nodes = (
(55,757,l),
(55,86,l),
(173,86,l),
(173,757,l)
);
}
);
width = 1000;
}
);
note = cid12700;
unicode = 21990;
}
{
glyphname = uni55E8;
layers = (
{
layerId = m01;
shapes = (
{
closed = 1;
nodes = (
(84,720,l),
(84,133,l),
(113,133,l),
(113,720,l)
);
},
{
closed = 1;
nodes = (
(99,720,l),
(99,691,l),
(244,691,l),
(244,246,l),
(99,246,l),
(99,217,l),
(274,217,l),
(274,720,l)
);
},
{
closed = 1;
nodes = (
(547,548,l),
(527,378,o),
(496,180,o),
(468,34,c),
(497,28,l),
(524,172,o),
(554,373,o),
(576,548,c)
);
},
{
closed = 1;
nodes = (
(490,101,l),
(490,72,l),
(933,72,l),
(933,101,l)
);
},
{
closed = 1;
nodes = (
(622,256,l),
(673,220,o),
(731,167,o),
(758,130,c),
(779,150,l),
(753,187,o),
(694,238,o),
(642,274,c)
);
},
{
closed = 1;
nodes = (
(444,329,l),
(444,300,l),
(951,300,l),
(951,329,l)
);
},
{
closed = 1;
nodes = (
(634,481,l),
(686,445,o),
(745,392,o),
(771,355,c),
(793,376,l),
(766,413,o),
(707,464,o),
(655,499,c)
);
},
{
closed = 1;
nodes = (
(585,830,l),
(560,701,o),
(517,579,o),
(452,498,c),
(461,495,o),
(475,487,o),
(481,482,c),
(541,563,o),
(593,695,o),
(617,824,c)
);
},
{
closed = 1;
nodes = (
(561,548,l),
(561,519,l),
(892,519,l),
(892,548,l)
);
},
{
closed = 1;
nodes = (
(565,691,l),
(565,662,l),
(947,662,l),
(947,691,l)
);
},
{
closed = 1;
nodes = (
(876,548,l),
(876,541,l),
(861,153,o),
(843,16,o),
(814,-17,cs),
(805,-27,o),
(794,-30,o),
(775,-30,cs),
(757,-30,o),
(702,-29,o),
(643,-24,c),
(649,-32,o),
(652,-44,o),
(653,-54,c),
(703,-57,o),
(754,-59,o),
(780,-58,cs),
(808,-57,o),
(824,-52,o),
(839,-34,cs),
(874,7,o),
(889,133,o),
(906,527,c),
(906,533,o),
(906,548,o),
(906,548,c)
);
},
{
closed = 1;
nodes = (
(309,775,l),
(365,744,o),
(426,698,o),
(457,664,c),
(476,686,l),
(445,720,o),
(384,764,o),
(328,794,c)
);
},
{
closed = 1;
nodes = (
(288,508,l),
(342,484,o),
(405,447,o),
(437,417,c),
(454,443,l),
(422,471,o),
(358,508,o),
(304,529,c)
);
},
{
closed = 1;
nodes = (
(288,-71,l),
(330,18,o),
(384,151,o),
(421,256,c),
(397,274,l),
(358,163,o),
(301,27,o),
(260,-52,c)
);
}
);
width = 1000;
},
{
layerId = "94DDBC6A-1627-4027-9125-871D02041BCD";
shapes = (
{
closed = 1;
nodes = (
(53,763,l),
(53,92,l),
(158,92,l),
(158,763,l)
);
},
{
closed = 1;
nodes = (
(127,763,l),
(127,634,l),
(190,634,l),
(190,307,l),
(127,307,l),
(127,179,l),
(299,179,l),
(299,763,l)
);
},
{
closed = 1;
nodes = (
(551,568,l),
(534,385,o),
(503,167,o),
(471,5,c),
(593,-3,l),
(620,158,o),
(649,378,o),
(669,568,c)
);
},
{
closed = 1;
nodes = (
(576,158,l),
(576,41,l),
(965,41,l),
(965,158,l)
);
},
{
closed = 1;
nodes = (
(637,211,l),
(674,184,o),
(707,154,o),
(727,130,c),
(797,203,l),
(779,222,o),
(742,251,o),
(703,276,c)
);
},
{
closed = 1;
nodes = (
(468,376,l),
(468,252,l),
(975,252,l),
(975,376,l)
);
},
{
closed = 1;
nodes = (
(656,419,l),
(693,392,o),
(726,362,o),
(746,338,c),
(816,411,l),
(796,433,o),
(761,461,o),
(723,485,c)
);
},
{
closed = 1;
nodes = (
(555,855,l),
(533,746,o),
(484,645,o),
(427,592,c),
(459,570,o),
(501,532,o),
(522,506,c),
(584,571,o),
(644,697,o),
(676,831,c)
);
},
{
closed = 1;
nodes = (
(611,568,l),
(611,453,l),
(878,453,l),
(878,568,l)
);
},
{
closed = 1;
nodes = (
(548,741,l),
(548,610,l),
(960,610,l),
(960,741,l)
);
},
{
closed = 1;
nodes = (
(824,568,l),
(824,543,l),
(814,191,o),
(799,61,o),
(777,32,cs),
(767,19,o),
(758,15,o),
(744,15,cs),
(726,15,o),
(696,16,o),
(661,19,c),
(679,-13,o),
(692,-63,o),
(694,-96,c),
(738,-97,o),
(777,-97,o),
(804,-92,cs),
(836,-86,o),
(859,-75,o),
(882,-43,cs),
(915,1,o),
(928,139,o),
(943,515,c),
(944,530,o),
(944,568,o),
(944,568,c)
);
},
{
closed = 1;
nodes = (
(298,735,l),
(347,705,o),
(399,666,o),
(424,639,c),
(509,744,l),
(482,769,o),
(424,808,o),
(379,831,c)
);
},
{
closed = 1;
nodes = (
(281,472,l),
(328,446,o),
(381,409,o),
(409,383,c),
(490,492,l),
(461,515,o),
(407,547,o),
(358,570,c)
);
},
{
closed = 1;
nodes = (
(384,-88,l),
(417,11,o),
(450,124,o),
(477,231,c),
(365,296,l),
(334,179,o),
(291,54,o),
(259,-25,c)
);
}
);
width = 1000;
}
);
note = cid12702;
unicode = 21992;
}
{
glyphname = uni5600;
layers = (
{
layerId = m01;
shapes = (
{
closed = 1;
nodes = (
(628,829,l),
(628,718,l),
(658,718,l),
(658,829,l)
);
},
{
closed = 1;
nodes = (
(95,721,l),
(95,692,l),
(281,692,l),
(281,247,l),
(95,247,l),
(95,217,l),
(310,217,l),
(310,721,l)
);
},
{
closed = 1;
nodes = (
(84,721,l),
(84,131,l),
(114,131,l),
(114,721,l)
);
},
{
closed = 1;
nodes = (
(367,562,l),
(367,-70,l),
(397,-70,l),
(397,532,l),
(903,532,l),
(903,562,l)
);
},
{
closed = 1;
nodes = (
(882,562,l),
(882,-22,ls),
(882,-35,o),
(877,-40,o),
(865,-41,cs),
(852,-42,o),
(806,-42,o),
(751,-40,c),
(756,-50,o),
(761,-63,o),
(763,-71,c),
(830,-71,o),
(868,-71,o),
(887,-66,cs),
(906,-61,o),
(912,-45,o),
(912,-22,cs),
(912,562,l)
);
},
{
closed = 1;
nodes = (
(457,412,l),
(457,382,l),
(805,382,l),
(805,412,l)
);
},
{
closed = 1;
nodes = (
(519,284,l),
(519,254,l),
(744,254,l),
(744,113,l),
(519,113,l),
(519,84,l),
(773,84,l),
(773,284,l)
);
},
{
closed = 1;
nodes = (
(504,284,l),
(504,37,l),
(533,37,l),
(533,284,l)
);
},
{
closed = 1;
nodes = (
(617,502,l),
(617,267,l),
(647,267,l),
(647,502,l)
);
},
{
closed = 1;
nodes = (
(348,729,l),
(348,700,l),
(939,700,l),
(939,729,l)
);
},
{
closed = 1;
nodes = (
(465,691,l),
(491,649,o),
(514,594,o),
(521,560,c),
(550,570,l),
(543,604,o),
(519,658,o),
(493,699,c)
);
},
{
closed = 1;
nodes = (
(775,699,l),
(763,661,o),
(739,602,o),
(720,567,c),
(745,557,l),
(764,591,o),
(788,645,o),
(805,688,c)
);
}
);
width = 1000;
},
{
layerId = "94DDBC6A-1627-4027-9125-871D02041BCD";
shapes = (
{
closed = 1;
nodes = (
(576,846,l),
(576,715,l),
(720,715,l),
(720,846,l)
);
},
{
closed = 1;
nodes = (
(101,739,l),
(101,610,l),
(210,610,l),
(210,290,l),
(101,290,l),
(101,161,l),
(325,161,l),
(325,739,l)
);
},
{
closed = 1;
nodes = (
(57,739,l),
(57,77,l),
(166,77,l),
(166,739,l)
);
},
{
closed = 1;
nodes = (
(360,573,l),
(360,-96,l),
(484,-96,l),
(484,457,l),
(891,457,l),
(891,573,l)
);
},
{
closed = 1;
nodes = (
(816,573,l),
(816,36,ls),
(816,25,o),
(812,21,o),
(799,20,cs),
(787,20,o),
(747,20,o),
(715,22,c),
(730,-9,o),
(746,-60,o),
(750,-93,c),
(814,-93,o),
(862,-91,o),
(897,-73,cs),
(933,-53,o),
(943,-22,o),
(943,35,cs),
(943,573,l)
);
},
{
closed = 1;
nodes = (
(499,409,l),
(499,320,l),
(801,320,l),
(801,409,l)
);
},
{
closed = 1;
nodes = (
(587,273,l),
(587,184,l),
(685,184,l),
(685,133,l),
(587,133,l),
(587,42,l),
(781,42,l),
(781,274,l)
);
},
{
closed = 1;
nodes = (
(523,274,l),
(523,8,l),
(619,8,l),
(619,273,l)
);
},
{
closed = 1;
nodes = (
(596,470,l),
(596,214,l),
(703,214,l),
(703,470,l)
);
},
{
closed = 1;
nodes = (
(342,769,l),
(342,655,l),
(959,655,l),
(959,769,l)
);
},
{
closed = 1;
nodes = (
(443,652,l),
(454,624,o),
(462,585,o),
(465,561,c),
(597,577,l),
(593,601,o),
(582,637,o),
(570,664,c)
);
},
{
closed = 1;
nodes = (
(726,672,l),
(721,645,o),
(708,606,o),
(698,579,c),
(821,560,l),
(832,583,o),
(845,614,o),
(861,649,c)
);
}
);
width = 1000;
}
);
note = cid12745;
unicode = 22016;
}
{
glyphname = uni561F;
layers = (
{
layerId = m01;
shapes = (
{
closed = 1;
nodes = (
(537,457,l),
(569,429,o),
(604,389,o),
(621,361,c),
(646,376,l),
(630,405,o),
(594,444,o),
(561,470,c)
);
},
{
closed = 1;
nodes = (
(720,763,l),
(720,-70,l),
(749,-70,l),
(749,734,l),
(914,734,l),
(914,763,l)
);
},
{
closed = 1;
nodes = (
(905,763,l),
(905,756,l),
(884,680,o),
(851,578,o),
(812,473,c),
(885,377,o),
(902,299,o),
(902,233,cs),
(902,200,o),
(898,161,o),
(882,148,cs),
(873,142,o),
(864,139,o),
(851,138,cs),
(835,137,o),
(814,137,o),
(790,140,c),
(797,130,o),
(801,119,o),
(802,110,c),
(821,108,o),
(843,108,o),
(861,110,cs),
(877,112,o),
(891,117,o),
(902,125,cs),
(923,142,o),
(931,189,o),
(931,233,cs),
(931,302,o),
(915,382,o),
(844,477,c),
(877,567,o),
(912,669,o),
(937,752,c),
(917,765,l),
(912,763,l)
);
},
{
closed = 1;
nodes = (
(329,699,l),
(329,670,l),
(588,670,l),
(588,699,l)
);
},
{
closed = 1;
nodes = (
(296,526,l),
(296,497,l),
(684,497,l),
(684,526,l)
);
},
{
closed = 1;
nodes = (
(447,822,l),
(447,512,l),
(476,512,l),
(476,822,l)
);
},
{
closed = 1;
nodes = (
(382,340,l),
(382,-70,l),
(411,-70,l),
(411,311,l),
(627,311,l),
(627,-62,l),
(656,-62,l),
(656,340,l)
);
},
{
closed = 1;
nodes = (
(394,178,l),
(394,149,l),
(635,149,l),
(635,178,l)
);
},
{
closed = 1;
nodes = (
(393,16,l),
(393,-13,l),
(634,-13,l),
(634,16,l)
);
},
{
closed = 1;
nodes = (
(656,785,l),
(582,574,o),
(435,372,o),
(276,261,c),
(282,256,o),
(292,245,o),
(296,238,c),
(460,355,o),
(610,562,o),
(686,776,c)
);
},
{
closed = 1;
nodes = (
(97,715,l),
(97,686,l),
(242,686,l),
(242,256,l),
(97,256,l),
(97,227,l),
(271,227,l),
(271,715,l)
);
},
{
closed = 1;
nodes = (
(82,715,l),
(82,137,l),
(111,137,l),
(111,715,l)
);
}
);
width = 1000;
},
{
layerId = "94DDBC6A-1627-4027-9125-871D02041BCD";
shapes = (
{
closed = 1;
nodes = (
(514,434,l),
(537,404,o),
(561,366,o),
(572,340,c),
(662,386,l),
(650,411,o),
(624,448,o),
(599,477,c)
);
},
{
closed = 1;
nodes = (
(681,794,l),
(681,-96,l),
(796,-96,l),
(796,676,l),
(885,676,l),
(885,794,l)
);
},
{
closed = 1;
nodes = (
(852,794,l),
(852,784,l),
(840,689,o),
(821,569,o),
(795,439,c),
(845,344,o),
(853,289,o),
(853,237,cs),
(853,202,o),
(849,173,o),
(837,162,cs),
(832,158,o),
(826,156,o),
(817,156,cs),
(811,156,o),
(799,156,o),
(792,156,c),
(809,125,o),
(817,78,o),
(817,46,c),
(835,46,o),
(853,46,o),
(866,49,cs),
(887,53,o),
(903,60,o),
(917,72,cs),
(951,100,o),
(966,157,o),
(966,233,cs),
(966,292,o),
(955,358,o),
(903,455,c),
(930,566,o),
(953,669,o),
(973,755,c),
(886,798,l),
(870,794,l)
);
},
{
closed = 1;
nodes = (
(321,755,l),
(321,637,l),
(548,637,l),
(548,755,l)
);
},
{
closed = 1;
nodes = (
(300,585,l),
(300,468,l),
(661,468,l),
(661,585,l)
);
},
{
closed = 1;
nodes = (
(388,848,l),
(388,512,l),
(491,512,l),
(491,848,l)
);
},
{
closed = 1;
nodes = (
(352,365,l),
(352,-95,l),
(450,-95,l),
(450,256,l),
(542,256,l),
(542,-86,l),
(644,-86,l),
(644,365,l)
);
},
{
closed = 1;
nodes = (
(410,212,l),
(410,106,l),
(603,106,l),
(603,212,l)
);
},
{
closed = 1;
nodes = (
(410,54,l),
(410,-55,l),
(603,-55,l),
(603,54,l)
);
},
{
closed = 1;
nodes = (
(579,802,l),
(529,584,o),
(400,386,o),
(245,289,c),
(274,269,o),
(316,230,o),
(335,206,c),
(492,318,o),
(629,539,o),
(689,778,c)
);
},
{
closed = 1;
nodes = (
(121,760,l),
(121,642,l),
(185,642,l),
(185,302,l),
(121,302,l),
(121,184,l),
(287,184,l),
(287,760,l)
);
},
{
closed = 1;
nodes = (
(54,760,l),
(54,87,l),
(156,87,l),
(156,760,l)
);
}
);
width = 1000;
}
);
unicode = 22047;
}
{
glyphname = uni562D;
layers = (
{
layerId = m01;
shapes = (
{
closed = 1;
nodes = (
(313,-22,l),
(416,0,o),
(558,31,o),
(691,62,c),
(689,87,l),
(545,56,o),
(396,25,o),
(299,7,c)
);
},
{
closed = 1;
nodes = (
(398,234,l),
(416,186,o),
(433,123,o),
(437,82,c),
(464,91,l),
(459,131,o),
(443,194,o),
(422,241,c)
);
},
{
closed = 1;
nodes = (
(325,723,l),
(325,694,l),
(696,694,l),
(696,723,l)
);
},
{
closed = 1;
nodes = (
(353,585,l),
(353,556,l),
(667,556,l),
(667,585,l)
);
},
{
closed = 1;
nodes = (
(493,831,l),
(493,571,l),
(522,571,l),
(522,831,l)
);
},
{
closed = 1;
nodes = (
(597,250,l),
(586,205,o),
(564,136,o),
(546,95,c),
(569,87,l),
(587,126,o),
(609,190,o),
(627,241,c)
);
},
{
closed = 1;
nodes = (
(393,443,l),
(627,443,l),
(627,306,l),
(393,306,l)
);
},
{
closed = 1;
nodes = (
(364,472,l),
(364,277,l),
(656,277,l),
(656,472,l)
);
},
{
closed = 1;
nodes = (
(894,805,l),
(849,724,o),
(770,633,o),
(697,580,c),
(705,575,o),
(715,567,o),
(722,561,c),
(794,615,o),
(875,709,o),
(923,796,c)
);
},
{
closed = 1;
nodes = (
(898,536,l),
(854,447,o),
(772,352,o),
(687,298,c),
(695,293,o),
(705,285,o),
(711,278,c),
(796,334,o),
(879,431,o),
(926,526,c)
);
},
{
closed = 1;
nodes = (
(915,248,l),
(866,121,o),
(765,11,o),
(629,-49,c),
(636,-55,o),
(645,-65,o),
(650,-72,c),
(788,-9,o),
(892,107,o),
(943,239,c)
);
},
{
closed = 1;
nodes = (
(98,720,l),
(98,691,l),
(264,691,l),
(264,228,l),
(98,228,l),
(98,198,l),
(293,198,l),
(293,720,l)
);
},
{
closed = 1;
nodes = (
(84,720,l),
(84,116,l),
(113,116,l),
(113,720,l)
);
}
);
vertWidth = 1000;
width = 1000;
},
{
layerId = "94DDBC6A-1627-4027-9125-871D02041BCD";
shapes = (
{
closed = 1;
nodes = (
(330,-54,l),
(441,-26,o),
(582,12,o),
(696,44,c),
(684,154,l),
(560,126,o),
(408,95,o),
(290,73,c)
);
},
{
closed = 1;
nodes = (
(340,231,l),
(357,189,o),
(370,132,o),
(371,96,c),
(485,131,l),
(481,168,o),
(467,223,o),
(447,263,c)
);
},
{
closed = 1;
nodes = (
(326,772,l),
(326,659,l),
(682,659,l),
(682,772,l)
);
},
{
closed = 1;
nodes = (
(339,624,l),
(339,513,l),
(668,513,l),
(668,624,l)
);
},
{
closed = 1;
nodes = (
(438,853,l),
(438,565,l),
(567,565,l),
(567,853,l)
);
},
{
closed = 1;
nodes = (
(527,265,l),
(524,223,o),
(515,168,o),
(504,124,c),
(604,99,l),
(622,138,o),
(645,192,o),
(663,239,c)
);
},
{
closed = 1;
nodes = (
(463,395,l),
(538,395,l),
(538,355,l),
(463,355,l)
);
},
{
closed = 1;
nodes = (
(347,490,l),
(347,260,l),
(660,260,l),
(660,490,l)
);
},
{
closed = 1;
nodes = (
(828,843,l),
(795,765,o),
(732,684,o),
(664,633,c),
(696,610,o),
(732,575,o),
(759,541,c),
(836,607,o),
(905,699,o),
(952,801,c)
);
},
{
closed = 1;
nodes = (
(835,553,l),
(800,478,o),
(731,401,o),
(656,352,c),
(690,326,o),
(727,289,o),
(751,257,c),
(833,316,o),
(914,413,o),
(961,509,c)
);
},
{
closed = 1;
nodes = (
(848,260,l),
(807,148,o),
(725,54,o),
(626,1,c),
(659,-25,o),
(696,-68,o),
(715,-101,c),
(834,-26,o),
(920,82,o),
(974,223,c)
);
},
{
closed = 1;
nodes = (
(130,772,l),
(130,643,l),
(200,643,l),
(200,307,l),
(130,307,l),
(130,178,l),
(309,178,l),
(309,772,l)
);
},
{
closed = 1;
nodes = (
(55,772,l),
(55,83,l),
(162,83,l),
(162,772,l)
);
}
);
vertWidth = 1000;
width = 1000;
}
);
note = cid12818;
unicode = 22061;
}
{
glyphname = uni5689;
layers = (
{
layerId = m01;
shapes = (
{
closed = 1;
nodes = (
(668,539,l),
(668,510,l),
(951,510,l),
(951,539,l)
);
},
{
closed = 1;
nodes = (
(845,817,l),
(845,-19,ls),
(845,-34,o),
(840,-38,o),
(826,-39,cs),
(813,-40,o),
(766,-40,o),
(712,-39,c),
(718,-48,o),
(723,-62,o),
(725,-71,c),
(786,-71,o),
(825,-71,o),
(846,-65,cs),
(865,-59,o),
(874,-48,o),
(874,-18,cs),
(874,817,l)
);
},
{
closed = 1;
nodes = (
(698,401,l),
(728,324,o),
(755,220,o),
(763,160,c),
(791,168,l),
(784,226,o),
(756,328,o),
(726,406,c)
);
},
{
closed = 1;
nodes = (
(99,720,l),
(99,691,l),
(235,691,l),
(235,246,l),
(99,246,l),
(99,217,l),
(265,217,l),
(265,720,l)
);
},
{
closed = 1;
nodes = (
(84,720,l),
(84,133,l),
(113,133,l),
(113,720,l)
);
},
{
closed = 1;
nodes = (
(286,-34,l),
(384,-18,o),
(514,5,o),
(641,28,c),
(640,52,l),
(507,31,o),
(371,8,o),
(277,-5,c)
);
},
{
closed = 1;
nodes = (
(291,586,l),
(291,557,l),
(649,557,l),
(649,586,l)
);
},
{
closed = 1;
nodes = (
(301,376,l),
(301,347,l),
(650,347,l),
(650,376,l)
);
},
{
closed = 1;
nodes = (
(357,531,l),
(376,487,o),
(391,430,o),
(394,392,c),
(422,399,l),
(418,436,o),
(402,494,o),
(381,537,c)
);
},
{
closed = 1;
nodes = (
(563,538,l),
(552,489,o),
(537,435,o),
(524,398,c),
(550,390,l),
(563,427,o),
(579,477,o),
(596,529,c)
);
},
{
closed = 1;
nodes = (
(315,215,l),
(315,185,l),
(633,185,l),
(633,215,l)
);
},
{
closed = 1;
nodes = (
(301,772,l),
(323,725,o),
(340,665,o),
(345,624,c),
(373,631,l),
(367,670,o),
(348,732,o),
(325,778,c)
);
},
{
closed = 1;
nodes = (
(633,786,l),
(622,741,o),
(600,671,o),
(582,630,c),
(606,621,l),
(624,663,o),
(645,725,o),
(663,776,c)
);
},
{
closed = 1;
nodes = (
(462,364,l),
(462,4,l),
(491,17,l),
(491,364,l)
);
},
{
closed = 1;
nodes = (
(419,830,l),
(419,566,l),
(448,566,l),
(448,830,l)
);
},
{
closed = 1;
nodes = (
(513,830,l),
(513,566,l),
(542,566,l),
(542,830,l)
);
}
);
vertWidth = 1000;
width = 1000;
},
{
layerId = "94DDBC6A-1627-4027-9125-871D02041BCD";
shapes = (
{
closed = 1;
nodes = (
(677,617,l),
(677,493,l),
(975,493,l),
(975,617,l)
);
},
{
closed = 1;
nodes = (
(796,828,l),
(796,45,ls),
(796,33,o),
(792,29,o),
(780,29,cs),
(768,29,o),
(735,29,o),
(703,30,c),
(720,-5,o),
(737,-61,o),
(741,-95,c),
(803,-95,o),
(848,-90,o),
(881,-69,cs),
(914,-48,o),
(923,-14,o),
(923,45,cs),
(923,828,l)
);
},
{
closed = 1;
nodes = (
(673,400,l),
(695,314,o),
(713,212,o),
(716,153,c),
(816,189,l),
(814,245,o),
(793,348,o),
(767,429,c)
);
},
{
closed = 1;
nodes = (
(97,757,l),
(97,639,l),
(185,639,l),
(185,299,l),
(97,299,l),
(97,181,l),
(292,181,l),
(292,757,l)
);
},
{
closed = 1;
nodes = (
(48,757,l),
(48,100,l),
(153,100,l),
(153,757,l)
);
},
{
closed = 1;
nodes = (
(305,-67,l),
(408,-52,o),
(541,-32,o),
(668,-11,c),
(664,93,l),
(523,77,o),
(378,62,o),
(282,54,c)
);
},
{
closed = 1;
nodes = (
(302,626,l),
(302,522,l),
(667,522,l),
(667,626,l)
);
},
{
closed = 1;
nodes = (
(304,401,l),
(304,300,l),
(669,300,l),
(669,401,l)
);
},
{
closed = 1;
nodes = (
(337,505,l),
(352,468,o),
(362,418,o),
(363,386,c),
(453,410,l),
(451,441,o),
(439,490,o),
(422,526,c)
);
},
{
closed = 1;
nodes = (
(535,528,l),
(529,491,o),
(519,443,o),
(509,411,c),
(590,388,l),
(602,418,o),
(622,467,o),
(638,505,c)
);
},
{
closed = 1;
nodes = (
(317,240,l),
(317,138,l),
(651,138,l),
(651,240,l)
);
},
{
closed = 1;
nodes = (
(273,793,l),
(293,746,o),
(309,683,o),
(311,643,c),
(396,668,l),
(392,707,o),
(374,769,o),
(352,815,c)
);
},
{
closed = 1;
nodes = (
(618,818,l),
(611,775,o),
(595,714,o),
(581,673,c),
(655,649,l),
(673,685,o),
(692,739,o),
(713,792,c)
);
},
{
closed = 1;
nodes = (
(431,342,l),
(431,24,l),
(537,52,l),
(537,342,l)
);
},
{
closed = 1;
nodes = (
(388,840,l),
(388,592,l),
(476,592,l),
(476,840,l)
);
},
{
closed = 1;
nodes = (
(502,840,l),
(502,592,l),
(589,592,l),
(589,840,l)
);
}
);
vertWidth = 1000;
width = 1000;
}
);
note = cid12985;
unicode = 22153;
}
{
color = 9;
glyphname = uni568E;
layers = (
{
layerId = m01;
shapes = (
{
closed = 1;
nodes = (
(612,830,l),
(612,730,l),
(641,730,l),
(641,830,l)
);
},
{
closed = 1;
nodes = (
(329,744,l),
(329,715,l),
(933,715,l),
(933,744,l)
);
},
{
closed = 1;
nodes = (
(401,364,l),
(401,335,l),
(856,335,l),
(856,364,l)
);
},
{
closed = 1;
nodes = (
(438,633,l),
(816,633,l),
(816,541,l),
(438,541,l)
);
},
{
closed = 1;
nodes = (
(409,662,l),
(409,512,l),
(845,512,l),
(845,662,l)
);
},
{
closed = 1;
nodes = (
(325,459,l),
(325,327,l),
(354,327,l),
(354,429,l),
(904,429,l),
(904,327,l),
(933,327,l),
(933,459,l)
);
},
{
closed = 1;
nodes = (
(600,234,l),
(539,185,o),
(417,134,o),
(319,111,c),
(326,105,o),
(334,94,o),
(337,86,c),
(436,113,o),
(558,170,o),
(623,219,c)
);
},
{
closed = 1;
nodes = (
(650,150,l),
(574,81,o),
(419,11,o),
(292,-17,c),
(298,-24,o),
(305,-37,o),
(309,-45,c),
(438,-11,o),
(591,64,o),
(673,135,c)
);
},
{
closed = 1;
nodes = (
(640,357,l),
(576,303,o),
(462,261,o),
(332,227,c),
(339,221,o),
(348,207,o),
(352,201,c),
(483,241,o),
(603,289,o),
(670,350,c)
);
},
{
closed = 1;
nodes = (
(521,280,l),
(682,181,o),
(696,15,o),
(643,-26,cs),
(621,-43,o),
(601,-45,o),
(575,-45,cs),
(558,-45,o),
(535,-44,o),
(510,-41,c),
(513,-48,o),
(517,-60,o),
(517,-67,c),
(542,-69,o),
(562,-69,o),
(579,-69,cs),
(615,-69,o),
(639,-63,o),
(665,-43,cs),
(729,6,o),
(711,192,o),
(539,296,c)
);
},
{
closed = 1;
nodes = (
(647,343,l),
(682,182,o),
(814,20,o),
(940,-26,c),
(946,-19,o),
(956,-9,o),
(964,-3,c),
(833,34,o),
(703,191,o),
(671,356,c)
);
},
{
closed = 1;
nodes = (
(873,284,l),
(836,253,o),
(771,211,o),
(726,185,c),
(743,165,l),
(792,191,o),
(856,230,o),
(900,267,c)
);
},
{
closed = 1;
nodes = (
(99,692,l),
(99,663,l),
(252,663,l),
(252,218,l),
(99,218,l),
(99,189,l),
(281,189,l),
(281,692,l)
);
},
{
closed = 1;
nodes = (
(85,692,l),
(85,101,l),
(114,101,l),
(114,692,l)
);
}
);
width = 1000;
},
{
layerId = "94DDBC6A-1627-4027-9125-871D02041BCD";
shapes = (
{
closed = 1;
nodes = (
(576,855,l),
(576,744,l),
(720,744,l),
(720,855,l)
);
},
{
closed = 1;
nodes = (
(331,796,l),
(331,698,l),
(957,698,l),
(957,796,l)
);
},
{
closed = 1;
nodes = (
(463,388,l),
(463,307,l),
(837,307,l),
(837,388,l)
);
},
{
closed = 1;
nodes = (
(537,603,l),
(762,603,l),
(762,575,l),
(537,575,l)
);
},
{
closed = 1;
nodes = (
(409,676,l),
(409,502,l),
(896,502,l),
(896,676,l)
);
},
{
closed = 1;
nodes = (
(327,484,l),
(327,320,l),
(443,320,l),
(443,407,l),
(851,407,l),
(851,320,l),
(972,320,l),
(972,484,l)
);
},
{
closed = 1;
nodes = (
(603,246,l),
(534,200,o),
(395,153,o),
(285,135,c),
(304,116,o),
(328,79,o),
(338,57,c),
(450,87,o),
(591,146,o),
(669,202,c)
);
},
{
closed = 1;
nodes = (
(648,179,l),
(574,110,o),
(413,39,o),
(277,7,c),
(299,-15,o),
(326,-56,o),
(338,-81,c),
(473,-33,o),
(640,46,o),
(722,127,c)
);
},
{
closed = 1;
nodes = (
(633,349,l),
(569,309,o),
(440,276,o),
(328,259,c),
(345,241,o),
(371,201,o),
(380,183,c),
(502,211,o),
(636,260,o),
(712,321,c)
);
},
{
closed = 1;
nodes = (
(520,228,l),
(631,158,o),
(639,56,o),
(618,29,cs),
(609,18,o),
(597,15,o),
(581,15,cs),
(566,15,o),
(544,15,o),
(519,18,c),
(537,-14,o),
(546,-63,o),
(548,-95,c),
(568,-96,o),
(588,-96,o),
(606,-96,cs),
(647,-96,o),
(683,-83,o),
(713,-47,cs),
(770,21,o),
(761,194,o),
(602,287,c)
);
},
{
closed = 1;
nodes = (
(680,328,l),
(720,143,o),
(804,-12,o),
(909,-73,c),
(929,-40,o),
(965,6,o),
(990,29,c),
(895,72,o),
(811,197,o),
(775,359,c)
);
},
{
closed = 1;
nodes = (
(882,294,l),
(846,262,o),
(783,217,o),
(739,194,c),
(810,121,l),
(857,140,o),
(918,173,o),
(974,208,c)
);
},
{
closed = 1;
nodes = (
(126,732,l),
(126,603,l),
(197,603,l),
(197,283,l),
(126,283,l),
(126,154,l),
(304,154,l),
(304,732,l)
);
},
{
closed = 1;
nodes = (
(57,732,l),
(57,70,l),
(165,70,l),
(165,732,l)
);
}
);
width = 1000;
}
);
note = cid12992;
unicode = 22158;
}
{
color = 9;
glyphname = uni5690;
layers = (
{
layerId = m01;
shapes = (
{
closed = 1;
nodes = (
(422,456,l),
(422,342,ls),
(422,281,o),
(445,273,o),
(536,273,cs),
(630,273,o),
(725,273,o),
(819,273,cs),
(888,273,o),
(902,287,o),
(906,355,c),
(898,356,o),
(886,360,o),
(878,366,c),
(875,312,o),
(867,303,o),
(818,303,cs),
(716,303,o),
(613,303,o),
(511,303,cs),
(459,303,o),
(451,311,o),
(451,342,cs),
(451,456,l)
);
},
{
closed = 1;
nodes = (
(817,442,l),
(723,416,o),
(559,393,o),
(431,381,c),
(435,374,o),
(439,362,o),
(440,354,c),
(573,370,o),
(740,391,o),
(846,420,c)
);
},
{
closed = 1;
nodes = (
(627,830,l),
(627,667,l),
(657,667,l),
(657,830,l)
);
},
{
closed = 1;
nodes = (
(344,690,l),
(344,534,l),
(374,534,l),
(374,661,l),
(920,661,l),
(920,534,l),
(950,534,l),
(950,690,l)
);
},
{
closed = 1;
nodes = (
(422,798,l),
(449,765,o),
(475,719,o),
(485,687,c),
(511,700,l),
(500,730,o),
(474,775,o),
(445,809,c)
);
},
{
closed = 1;
nodes = (
(836,818,l),
(819,785,o),
(788,731,o),
(765,700,c),
(787,688,l),
(812,718,o),
(841,764,o),
(866,804,c)
);
},
{
closed = 1;
nodes = (
(100,658,l),
(100,628,l),
(272,628,l),
(272,183,l),
(100,183,l),
(100,154,l),
(301,154,l),
(301,658,l)
);
},
{
closed = 1;
nodes = (
(84,658,l),
(84,67,l),
(114,67,l),
(114,658,l)
);
},
{
closed = 1;
nodes = (
(424,234,l),
(424,-71,l),
(453,-71,l),
(453,205,l),
(823,205,l),
(823,-68,l),
(853,-68,l),
(853,234,l)
);
},
{
closed = 1;
nodes = (
(446,-5,l),
(446,-34,l),
(830,-34,l),
(830,-5,l)
);
},
{
closed = 1;
nodes = (
(446,120,l),
(446,90,l),
(830,90,l),
(830,120,l)
);
},
{
closed = 1;
nodes = (
(493,584,l),
(788,584,l),
(788,498,l),
(493,498,l)
);
},
{
closed = 1;
nodes = (
(464,614,l),
(464,469,l),
(818,469,l),
(818,614,l)
);
}
);
width = 1000;
},
{
layerId = "94DDBC6A-1627-4027-9125-871D02041BCD";
shapes = (
{
closed = 1;
nodes = (
(386,442,l),
(386,361,ls),
(386,278,o),
(435,259,o),
(577,259,cs),
(652,259,o),
(727,259,o),
(802,259,cs),
(902,259,o),
(937,276,o),
(948,356,c),
(917,360,o),
(878,370,o),
(853,384,c),
(847,340,o),
(837,333,o),
(790,333,cs),
(720,333,o),
(651,333,o),
(581,333,cs),
(520,333,o),
(507,337,o),
(507,366,cs),
(507,442,l)
);
},
{
closed = 1;
nodes = (
(825,460,l),
(730,432,o),
(597,416,o),
(444,405,c),
(451,389,o),
(460,361,o),
(462,343,c),
(620,351,o),
(761,365,o),
(880,400,c)
);
},
{
closed = 1;
nodes = (
(571,855,l),
(571,693,l),
(709,693,l),
(709,855,l)
);
},
{
closed = 1;
nodes = (
(318,732,l),
(318,543,l),
(437,543,l),
(437,631,l),
(837,631,l),
(837,543,l),
(962,543,l),
(962,732,l)
);
},
{
closed = 1;
nodes = (
(370,813,l),
(390,779,o),
(412,733,o),
(420,703,c),
(534,746,l),
(523,775,o),
(501,818,o),
(479,849,c)
);
},
{
closed = 1;
nodes = (
(795,847,l),
(787,815,o),
(772,769,o),
(758,736,c),
(853,706,l),
(875,731,o),
(903,768,o),
(935,810,c)
);
},
{
closed = 1;
nodes = (
(128,688,l),
(128,567,l),
(198,567,l),
(198,218,l),
(128,218,l),
(128,97,l),
(303,97,l),
(303,688,l)
);
},
{
closed = 1;
nodes = (
(56,688,l),
(56,71,l),
(163,71,l),
(163,688,l)
);
},
{
closed = 1;
nodes = (
(417,239,l),
(417,-99,l),
(539,-99,l),
(539,152,l),
(751,152,l),
(751,-96,l),
(879,-96,l),
(879,239,l)
);
},
{
closed = 1;
nodes = (
(483,15,l),
(483,-66,l),
(821,-66,l),
(821,15,l)
);
},
{
closed = 1;
nodes = (
(483,126,l),
(483,51,l),
(821,51,l),
(821,126,l)
);
},
{
closed = 1;
nodes = (
(563,549,l),
(708,549,l),
(708,524,l),
(563,524,l)
);
},
{
closed = 1;
nodes = (
(457,619,l),
(457,455,l),
(820,455,l),
(820,619,l)
);
}
);
width = 1000;
}
);
note = cid12994;
unicode = 22160;
}
{
glyphname = uni56C6;
layers = (
{
layerId = m01;
shapes = (
{
closed = 1;
nodes = (
(98,720,l),
(98,691,l),
(267,691,l),
(267,228,l),
(98,228,l),
(98,198,l),
(296,198,l),
(296,720,l)
);
},
{
closed = 1;
nodes = (
(84,720,l),
(84,107,l),
(113,107,l),
(113,720,l)
);
},
{
closed = 1;
nodes = (
(428,206,l),
(841,206,l),
(841,107,l),
(428,107,l)
);
},
{
closed = 1;
nodes = (
(399,235,l),
(399,78,l),
(870,78,l),
(870,235,l)
);
},
{
closed = 1;
nodes = (
(620,294,l),
(620,-22,l),
(649,-22,l),
(649,294,l)
);
},
{
closed = 1;
nodes = (
(351,-56,l),
(502,-46,o),
(700,-30,o),
(865,-14,c),
(866,12,l),
(696,-2,o),
(495,-16,o),
(345,-25,c)
);
},
{
closed = 1;
nodes = (
(778,55,l),
(826,18,o),
(874,-31,o),
(903,-72,c),
(927,-51,l),
(898,-13,o),
(850,35,o),
(800,73,c)
);
},
{
closed = 1;
nodes = (
(617,661,l),
(617,338,l),
(646,338,l),
(646,661,l)
);
},
{
closed = 1;
nodes = (
(446,570,l),
(824,570,l),
(824,521,l),
(446,521,l)
);
},
{
closed = 1;
nodes = (
(446,647,l),
(824,647,l),
(824,599,l),
(446,599,l)
);
},
{
closed = 1;
nodes = (
(417,676,l),
(417,492,l),
(853,492,l),
(853,676,l)
);
},
{
closed = 1;
nodes = (
(496,831,l),
(496,690,l),
(525,690,l),
(525,831,l)
);
},
{
closed = 1;
nodes = (
(735,831,l),
(735,690,l),
(764,690,l),
(764,831,l)
);
},
{
closed = 1;
nodes = (
(886,462,l),
(886,288,ls),
(886,279,o),
(884,278,o),
(875,277,cs),
(866,276,o),
(839,276,o),
(803,277,c),
(808,269,o),
(813,258,o),
(815,251,c),
(857,251,o),
(883,251,o),
(898,257,cs),
(912,263,o),
(915,270,o),
(915,288,cs),
(915,462,l)
);
},
{
closed = 1;
nodes = (
(451,314,l),
(545,323,o),
(677,336,o),
(804,350,c),
(804,377,l),
(676,364,o),
(538,351,o),
(445,343,c)
);
},
{
closed = 1;
nodes = (
(727,406,l),
(772,373,o),
(814,332,o),
(837,299,c),
(860,318,l),
(839,349,o),
(792,393,o),
(749,421,c)
);
},
{
closed = 1;
nodes = (
(365,462,l),
(365,243,l),
(394,243,l),
(394,433,l),
(906,433,l),
(906,462,l)
);
},
{
closed = 1;
nodes = (
(328,768,l),
(328,739,l),
(950,739,l),
(950,768,l)
);
}
);
vertWidth = 1000;
width = 1000;
},
{
layerId = "94DDBC6A-1627-4027-9125-871D02041BCD";
shapes = (
{
closed = 1;
nodes = (
(129,777,l),
(129,648,l),
(201,648,l),
(201,287,l),
(129,287,l),
(129,158,l),
(316,158,l),
(316,777,l)
);
},
{
closed = 1;
nodes = (
(55,777,l),
(55,88,l),
(167,88,l),
(167,777,l)
);
},
{
closed = 1;
nodes = (
(498,163,l),
(773,163,l),
(773,132,l),
(498,132,l)
);
},
{
closed = 1;
nodes = (
(394,236,l),
(394,59,l),
(884,59,l),
(884,236,l)
);
},
{
closed = 1;
nodes = (
(580,272,l),
(580,-37,l),
(696,-37,l),
(696,272,l)
);
},
{
closed = 1;
nodes = (
(360,-91,l),
(491,-83,o),
(670,-72,o),
(840,-59,c),
(842,22,l),
(659,14,o),
(466,7,o),
(343,4,c)
);
},
{
closed = 1;
nodes = (
(759,31,l),
(791,-4,o),
(826,-53,o),
(849,-95,c),
(943,-43,l),
(922,-5,o),
(886,40,o),
(849,75,c)
);
},
{
closed = 1;
nodes = (
(580,643,l),
(580,323,l),
(693,323,l),
(693,643,l)
);
},
{
closed = 1;
nodes = (
(505,561,l),
(757,561,l),
(757,540,l),
(505,540,l)
);
},
{
closed = 1;
nodes = (
(505,634,l),
(757,634,l),
(757,614,l),
(505,614,l)
);
},
{
closed = 1;
nodes = (
(397,689,l),
(397,485,l),
(870,485,l),
(870,689,l)
);
},
{
closed = 1;
nodes = (
(447,855,l),
(447,697,l),
(577,697,l),
(577,855,l)
);
},
{
closed = 1;
nodes = (
(700,855,l),
(700,697,l),
(830,697,l),
(830,855,l)
);
},
{
closed = 1;
nodes = (
(831,465,l),
(831,316,ls),
(831,309,o),
(828,307,o),
(821,306,cs),
(815,306,o),
(797,306,o),
(782,307,c),
(793,285,o),
(805,253,o),
(809,228,c),
(849,228,o),
(882,228,o),
(907,241,cs),
(933,254,o),
(940,274,o),
(940,316,cs),
(940,465,l)
);
},
{
closed = 1;
nodes = (
(485,279,l),
(568,288,o),
(668,300,o),
(769,312,c),
(769,368,l),
(655,361,o),
(538,354,o),
(457,351,c)
);
},
{
closed = 1;
nodes = (
(701,383,l),
(723,358,o),
(748,323,o),
(759,300,c),
(832,329,l),
(820,352,o),
(793,386,o),
(771,410,c)
);
},
{
closed = 1;
nodes = (
(340,465,l),
(340,240,l),
(448,240,l),
(448,392,l),
(877,392,l),
(877,465,l)
);
},
{
closed = 1;
nodes = (
(334,812,l),
(334,720,l),
(954,720,l),
(954,812,l)
);
}
);
vertWidth = 1000;
width = 1000;
}
);
note = cid13096;
unicode = 22214;
}
{
color = 9;
glyphname = uni56D4;
layers = (
{
layerId = m01;
shapes = (
{
closed = 1;
nodes = (
(487,388,l),
(487,168,l),
(516,168,l),
(516,388,l)
);
},
{
closed = 1;
nodes = (
(709,388,l),
(709,168,l),
(738,168,l),
(738,388,l)
);
},
{
closed = 1;
nodes = (
(282,183,l),
(282,154,l),
(947,154,l),
(947,183,l)
);
},
{
closed = 1;
nodes = (
(597,180,l),
(521,125,o),
(375,73,o),
(261,50,c),
(269,43,o),
(278,32,o),
(283,24,c),
(395,49,o),
(546,106,o),
(623,165,c)
);
},
{
closed = 1;
nodes = (
(609,169,l),
(659,40,o),
(779,-38,o),
(944,-71,c),
(949,-62,o),
(957,-50,o),
(964,-43,c),
(802,-16,o),
(684,57,o),
(638,177,c)
);
},
{
closed = 1;
nodes = (
(866,134,l),
(831,107,o),
(765,65,o),
(720,40,c),
(740,25,l),
(786,47,o),
(847,82,o),
(891,116,c)
);
},
{
closed = 1;
nodes = (
(448,97,l),
(448,-40,l),
(477,-40,l),
(477,87,l)
);
},
{
closed = 1;
nodes = (
(349,-65,l),
(440,-51,o),
(563,-30,o),
(684,-10,c),
(682,18,l),
(553,-4,o),
(423,-24,o),
(338,-36,c)
);
},
{
closed = 1;
nodes = (
(595,819,l),
(595,532,l),
(624,532,l),
(624,819,l)
);
},
{
closed = 1;
nodes = (
(299,770,l),
(299,741,l),
(937,741,l),
(937,770,l)
);
},
{
closed = 1;
nodes = (
(353,260,l),
(353,230,l),
(882,230,l),
(882,260,l)
);
},
{
closed = 1;
nodes = (
(332,336,l),
(332,307,l),
(894,307,l),
(894,336,l)
);
},
{
closed = 1;
nodes = (
(396,670,l),
(841,670,l),
(841,620,l),
(396,620,l)
);
},
{
closed = 1;
nodes = (
(366,700,l),
(366,590,l),
(870,590,l),
(870,700,l)
);
},
{
closed = 1;
nodes = (
(411,452,l),
(556,452,l),
(556,401,l),
(411,401,l)
);
},
{
closed = 1;
nodes = (
(382,481,l),
(382,372,l),
(585,372,l),
(585,481,l)
);
},
{
closed = 1;
nodes = (
(668,452,l),
(818,452,l),
(818,401,l),
(668,401,l)
);
},
{
closed = 1;
nodes = (
(639,481,l),
(639,372,l),
(848,372,l),
(848,481,l)
);
},
{
closed = 1;
nodes = (
(296,548,l),
(296,437,l),
(325,437,l),
(325,519,l),
(906,519,l),
(906,437,l),
(935,437,l),
(935,548,l)
);
},
{
closed = 1;
nodes = (
(97,696,l),
(97,666,l),
(225,666,l),
(225,223,l),
(97,223,l),
(97,193,l),
(254,193,l),
(254,696,l)
);
},
{
closed = 1;
nodes = (
(81,696,l),
(81,110,l),
(110,110,l),
(110,696,l)
);
}
);
width = 1000;
},
{
layerId = "94DDBC6A-1627-4027-9125-871D02041BCD";
shapes = (
{
closed = 1;
nodes = (
(462,405,l),
(462,157,l),
(588,157,l),
(588,405,l)
);
},
{
closed = 1;
nodes = (
(692,405,l),
(692,157,l),
(818,157,l),
(818,405,l)
);
},
{
closed = 1;
nodes = (
(304,189,l),
(304,120,l),
(970,120,l),
(970,189,l)
);
},
{
closed = 1;
nodes = (
(578,176,l),
(515,127,o),
(386,97,o),
(256,85,c),
(277,67,o),
(304,32,o),
(316,9,c),
(457,27,o),
(592,73,o),
(669,142,c)
);
},
{
closed = 1;
nodes = (
(610,160,l),
(657,17,o),
(743,-65,o),
(914,-99,c),
(927,-69,o),
(956,-27,o),
(980,-5,c),
(830,14,o),
(745,73,o),
(708,173,c)
);
},
{
closed = 1;
nodes = (
(868,129,l),
(833,107,o),
(774,75,o),
(731,57,c),
(805,7,l),
(849,23,o),
(906,46,o),
(954,75,c)
);
},
{
closed = 1;
nodes = (
(419,92,l),
(419,-40,l),
(537,-40,l),
(537,70,l)
);
},
{
closed = 1;
nodes = (
(375,-90,l),
(465,-78,o),
(582,-63,o),
(694,-48,c),
(689,40,l),
(565,25,o),
(439,10,o),
(353,2,c)
);
},
{
closed = 1;
nodes = (
(562,855,l),
(562,522,l),
(696,522,l),
(696,855,l)
);
},
{
closed = 1;
nodes = (
(320,814,l),
(320,739,l),
(952,739,l),
(952,814,l)
);
},
{
closed = 1;
nodes = (
(344,271,l),
(344,210,l),
(940,210,l),
(940,271,l)
);
},
{
closed = 1;
nodes = (
(332,355,l),
(332,291,l),
(955,291,l),
(955,355,l)
);
},
{
closed = 1;
nodes = (
(487,668,l),
(789,668,l),
(789,646,l),
(487,646,l)
);
},
{
closed = 1;
nodes = (
(354,718,l),
(354,596,l),
(931,596,l),
(931,718,l)
);
},
{
closed = 1;
nodes = (
(476,449,l),
(529,449,l),
(529,427,l),
(476,427,l)
);
},
{
closed = 1;
nodes = (
(388,496,l),
(388,380,l),
(620,380,l),
(620,496,l)
);
},
{
closed = 1;
nodes = (
(737,449,l),
(790,449,l),
(790,427,l),
(737,427,l)
);
},
{
closed = 1;
nodes = (
(650,496,l),
(650,380,l),
(881,380,l),
(881,496,l)
);
},
{
closed = 1;
nodes = (
(308,575,l),
(308,445,l),
(406,445,l),
(406,513,l),
(859,513,l),
(859,445,l),
(960,445,l),
(960,575,l)
);
},
{
closed = 1;
nodes = (
(121,704,l),
(121,591,l),
(188,591,l),
(188,246,l),
(121,246,l),
(121,134,l),
(285,134,l),
(285,704,l)
);
},
{
closed = 1;
nodes = (
(58,704,l),
(58,57,l),
(158,57,l),
(158,704,l)
);
}
);
width = 1000;
}
);
note = cid13122;
unicode = 22228;
}
{
glyphname = uni5B62;
layers = (
{
layerId = m01;
shapes = (
{
closed = 1;
nodes = (
(49,302,l),
(141,325,o),
(268,358,o),
(389,390,c),
(385,419,l),
(257,386,o),
(125,351,o),
(39,332,c)
);
},
{
closed = 1;
nodes = (
(62,763,l),
(62,734,l),
(376,734,l),
(376,763,l)
);
},
{
closed = 1;
nodes = (
(209,575,l),
(209,-25,ls),
(209,-38,o),
(204,-42,o),
(190,-42,cs),
(178,-42,o),
(133,-44,o),
(79,-42,c),
(83,-51,o),
(88,-63,o),
(90,-69,c),
(158,-70,o),
(193,-70,o),
(212,-65,cs),
(230,-60,o),
(238,-49,o),
(238,-24,cs),
(238,575,l)
);
},
{
closed = 1;
nodes = (
(365,763,l),
(365,755,l),
(332,696,o),
(270,617,o),
(215,570,c),
(222,566,o),
(230,558,o),
(235,552,c),
(291,603,o),
(358,681,o),
(399,752,c),
(378,765,l),
(372,763,l)
);
},
{
closed = 1;
nodes = (
(503,682,l),
(503,652,l),
(902,652,l),
(902,682,l)
);
},
{
closed = 1;
nodes = (
(889,682,l),
(889,674,l),
(885,348,o),
(869,193,o),
(847,175,cs),
(836,166,o),
(824,164,o),
(805,164,cs),
(790,164,o),
(749,164,o),
(704,168,c),
(710,160,o),
(713,147,o),
(713,139,c),
(751,136,o),
(788,136,o),
(810,136,cs),
(835,136,o),
(851,138,o),
(868,152,cs),
(899,178,o),
(911,288,o),
(919,682,c)
);
},
{
closed = 1;
nodes = (
(536,832,l),
(503,683,o),
(440,540,o),
(361,443,c),
(369,438,o),
(382,428,o),
(386,423,c),
(465,524,o),
(529,671,o),
(566,826,c)
);
},
{
closed = 1;
nodes = (
(472,533,l),
(472,13,ls),
(472,-52,o),
(498,-65,o),
(584,-65,cs),
(854,-65,ls),
(933,-65,o),
(946,-29,o),
(952,95,c),
(943,97,o),
(930,102,o),
(922,109,c),
(916,-11,o),
(909,-35,o),
(856,-35,cs),
(580,-35,ls),
(514,-35,o),
(502,-23,o),
(502,19,cs),
(502,533,l)
);
},
{
closed = 1;
nodes = (
(480,533,l),
(480,504,l),
(720,504,l),
(720,277,l),
(480,277,l),
(480,248,l),
(749,248,l),
(749,533,l)
);
}
);
width = 1000;
},
{
layerId = "94DDBC6A-1627-4027-9125-871D02041BCD";
shapes = (
{
closed = 1;
nodes = (
(38,277,l),
(140,294,o),
(267,314,o),
(386,336,c),
(379,464,l),
(249,446,o),
(111,428,o),
(20,419,c)
);
},
{
closed = 1;
nodes = (
(55,802,l),
(55,668,l),
(326,668,l),
(326,802,l)
);
},
{
closed = 1;
nodes = (
(142,580,l),
(142,61,ls),
(142,48,o),
(138,45,o),
(127,45,cs),
(115,45,o),
(79,45,o),
(47,46,c),
(65,7,o),
(84,-56,o),
(88,-95,c),
(149,-95,o),
(196,-91,o),
(233,-68,cs),
(271,-44,o),
(279,-4,o),
(279,59,cs),
(279,580,l)
);
},
{
closed = 1;
nodes = (
(268,802,l),
(268,772,l),
(252,720,o),
(215,631,o),
(178,579,c),
(204,558,o),
(250,515,o),
(271,486,c),
(326,551,o),
(385,658,o),
(426,745,c),
(331,810,l),
(302,802,l)
);
},
{
closed = 1;
nodes = (
(542,740,l),
(542,610,l),
(859,610,l),
(859,740,l)
);
},
{
closed = 1;
nodes = (
(818,740,l),
(818,711,l),
(814,405,o),
(811,294,o),
(798,272,cs),
(790,259,o),
(783,255,o),
(770,255,cs),
(758,255,o),
(740,256,o),
(719,259,c),
(738,223,o),
(752,168,o),
(754,129,c),
(789,128,o),
(827,129,o),
(849,135,cs),
(880,143,o),
(901,157,o),
(917,185,cs),
(941,227,o),
(947,350,o),
(950,740,c)
);
},
{
closed = 1;
nodes = (
(511,856,l),
(481,720,o),
(414,590,o),
(333,514,c),
(366,493,o),
(422,444,o),
(444,420,c),
(532,512,o),
(609,667,o),
(650,827,c)
);
},
{
closed = 1;
nodes = (
(449,554,l),
(449,94,ls),
(449,-49,o),
(487,-89,o),
(630,-89,cs),
(801,-89,ls),
(918,-89,o),
(957,-44,o),
(974,107,c),
(935,115,o),
(879,138,o),
(849,160,c),
(842,58,o),
(834,38,o),
(789,38,cs),
(650,38,ls),
(593,38,o),
(585,44,o),
(585,94,cs),
(585,554,l)
);
},
{
closed = 1;
nodes = (
(486,554,l),
(486,437,l),
(636,437,l),
(636,346,l),
(486,346,l),
(486,228,l),
(767,228,l),
(767,554,l)
);
}
);
width = 1000;
}
);
note = cid15384;
unicode = 23394;
}
{
color = 0;
glyphname = uni5B9E;
layers = (
{
layerId = m01;
shapes = (
{
closed = 1;
nodes = (
(484,195,l),
(631,116,o),
(776,19,o),
(863,-66,c),
(885,-45,l),
(797,39,o),
(649,139,o),
(501,215,c)
);
},
{
closed = 1;
nodes = (
(523,610,l),
(512,236,o),
(482,41,o),
(86,-38,c),
(92,-45,o),
(101,-57,o),
(104,-65,c),
(505,20,o),
(541,224,o),
(553,610,c)
);
},
{
closed = 1;
nodes = (
(75,237,l),
(75,208,l),
(931,208,l),
(931,237,l)
);
},
{
closed = 1;
nodes = (
(249,568,l),
(305,534,o),
(368,483,o),
(399,447,c),
(419,469,l),
(388,505,o),
(325,554,o),
(269,586,c)
);
},
{
closed = 1;
nodes = (
(151,408,l),
(211,374,o),
(280,320,o),
(314,281,c),
(333,305,l),
(300,342,o),
(231,394,o),
(171,427,c)
);
},
{
closed = 1;
nodes = (
(484,830,l),
(484,682,l),
(513,682,l),
(513,830,l)
);
},
{
closed = 1;
nodes = (
(104,696,l),
(104,519,l),
(133,519,l),
(133,667,l),
(868,667,l),
(868,519,l),
(897,519,l),
(897,696,l)
);
}
);
width = 1000;
},
{
layerId = "94DDBC6A-1627-4027-9125-871D02041BCD";
shapes = (
{
closed = 1;
nodes = (
(494,110,l),
(636,49,o),
(771,-31,o),
(853,-95,c),
(947,15,l),
(859,78,o),
(712,155,o),
(565,215,c)
);
},
{
closed = 1;
nodes = (
(472,599,l),
(463,298,o),
(465,119,o),
(73,30,c),
(104,-1,o),
(140,-57,o),
(154,-95,c),
(590,16,o),
(614,251,o),
(626,599,c)
);
},
{
closed = 1;
nodes = (
(66,285,l),
(66,164,l),
(940,164,l),
(940,285,l)
);
},
{
closed = 1;
nodes = (
(227,539,l),
(278,510,o),
(342,463,o),
(369,430,c),
(460,534,l),
(428,568,o),
(362,609,o),
(311,634,c)
);
},
{
closed = 1;
nodes = (
(124,391,l),
(175,364,o),
(240,321,o),
(269,289,c),
(356,397,l),
(323,428,o),
(257,467,o),
(206,489,c)
);
},
{
closed = 1;
nodes = (
(420,856,l),
(420,706,l),
(580,706,l),
(580,856,l)
);
},
{
closed = 1;
nodes = (
(69,772,l),
(69,528,l),
(214,528,l),
(214,637,l),
(782,637,l),
(782,528,l),
(935,528,l),
(935,772,l)
);
}
);
width = 1000;
}
);
note = cid15507;
unicode = 23454;
}
{
color = 9;
glyphname = uni5BAA;
layers = (
{
layerId = m01;
shapes = (
{
closed = 1;
nodes = (
(71,297,l),
(71,268,l),
(927,268,l),
(927,297,l)
);
},
{
closed = 1;
nodes = (
(266,598,l),
(231,505,o),
(176,414,o),
(112,351,c),
(120,347,o),
(133,337,o),
(137,333,c),
(198,397,o),
(257,493,o),
(294,591,c)
);
},
{
closed = 1;
nodes = (
(231,493,l),
(217,464,l),
(845,464,l),
(845,493,l)
);
},
{
closed = 1;
nodes = (
(483,645,l),
(483,278,l),
(513,278,l),
(513,645,l)
);
},
{
closed = 1;
nodes = (
(349,276,l),
(327,115,o),
(259,4,o),
(49,-47,c),
(55,-53,o),
(64,-64,o),
(67,-69,c),
(281,-15,o),
(354,100,o),
(380,276,c)
);
},
{
closed = 1;
nodes = (
(574,276,l),
(574,2,ls),
(574,-50,o),
(594,-59,o),
(667,-59,cs),
(733,-59,o),
(800,-59,o),
(866,-59,cs),
(933,-59,o),
(945,-30,o),
(950,91,c),
(941,94,o),
(929,99,o),
(920,105,c),
(917,-13,o),
(910,-29,o),
(864,-29,cs),
(798,-29,o),
(731,-29,o),
(665,-29,cs),
(613,-29,o),
(603,-23,o),
(603,2,cs),
(603,276,l)
);
},
{
closed = 1;
nodes = (
(483,831,l),
(483,717,l),
(513,717,l),
(513,831,l)
);
},
{
closed = 1;
nodes = (
(75,735,l),
(75,550,l),
(104,550,l),
(104,706,l),
(901,706,l),
(901,550,l),
(930,550,l),
(930,735,l)
);
}
);
width = 1000;
},
{
layerId = "94DDBC6A-1627-4027-9125-871D02041BCD";
shapes = (
{
closed = 1;
nodes = (
(61,338,l),
(61,212,l),
(935,212,l),
(935,338,l)
);
},
{
closed = 1;
nodes = (
(231,623,l),
(202,542,o),
(147,460,o),
(83,410,c),
(119,393,o),
(183,356,o),
(214,332,c),
(275,392,o),
(340,489,o),
(377,587,c)
);
},
{
closed = 1;
nodes = (
(277,548,l),
(215,424,l),
(854,424,l),
(854,548,l)
);
},
{
closed = 1;
nodes = (
(433,641,l),
(433,281,l),
(578,281,l),
(578,641,l)
);
},
{
closed = 1;
nodes = (
(290,220,l),
(276,124,o),
(251,63,o),
(41,28,c),
(69,0,o),
(104,-56,o),
(117,-92,c),
(372,-36,o),
(421,67,o),
(440,220,c)
);
},
{
closed = 1;
nodes = (
(550,226,l),
(550,88,ls),
(550,-34,o),
(579,-77,o),
(708,-77,cs),
(744,-77,o),
(780,-77,o),
(816,-77,cs),
(917,-77,o),
(954,-38,o),
(969,118,c),
(931,128,o),
(867,150,o),
(839,173,c),
(835,70,o),
(830,57,o),
(802,57,cs),
(778,57,o),
(754,57,o),
(730,57,cs),
(700,57,o),
(695,60,o),
(695,90,cs),
(695,226,l)
);
},
{
closed = 1;
nodes = (
(429,856,l),
(429,683,l),
(583,683,l),
(583,856,l)
);
},
{
closed = 1;
nodes = (
(57,790,l),
(57,554,l),
(205,554,l),
(205,653,l),
(793,653,l),
(793,554,l),
(949,554,l),
(949,790,l)
);
}
);
width = 1000;
}
);
note = cid15528;
unicode = 23466;
}
{
glyphname = uni833F;
layers = (
{
layerId = m01;
shapes = (
{
closed = 1;
nodes = (
(308,831,l),
(308,579,l),
(337,579,l),
(337,831,l)
);
},
{
closed = 1;
nodes = (
(661,831,l),
(661,579,l),
(690,579,l),
(690,831,l)
);
},
{
closed = 1;
nodes = (
(69,717,l),
(69,688,l),
(938,688,l),
(938,717,l)
);
},
{
closed = 1;
nodes = (
(69,492,l),
(69,463,l),
(414,463,l),
(414,492,l)
);
},
{
closed = 1;
nodes = (
(222,478,l),
(222,122,l),
(251,122,l),
(251,478,l)
);
},
{
closed = 1;
nodes = (
(65,70,l),
(159,91,o),
(290,120,o),
(418,149,c),
(416,176,l),
(292,148,o),
(153,119,o),
(57,100,c)
);
},
{
closed = 1;
nodes = (
(470,517,l),
(470,319,ls),
(470,195,o),
(436,53,o),
(229,-47,c),
(235,-51,o),
(243,-63,o),
(246,-70,c),
(461,33,o),
(499,187,o),
(499,318,cs),
(499,517,l)
);
},
{
closed = 1;
nodes = (
(484,517,l),
(484,488,l),
(785,488,l),
(785,517,l)
);
},
{
closed = 1;
nodes = (
(542,325,l),
(603,271,o),
(672,195,o),
(704,146,c),
(727,164,l),
(695,214,o),
(626,288,o),
(564,341,c)
);
},
{
closed = 1;
nodes = (
(800,517,l),
(770,517,l),
(770,2,ls),
(770,-46,o),
(781,-61,o),
(823,-61,cs),
(833,-61,o),
(883,-61,o),
(893,-61,cs),
(939,-61,o),
(947,-25,o),
(950,112,c),
(940,115,o),
(929,120,o),
(920,127,c),
(919,-6,o),
(914,-32,o),
(891,-32,cs),
(878,-32,o),
(834,-32,o),
(824,-32,cs),
(804,-32,o),
(800,-23,o),
(800,2,cs)
);
}
);
vertWidth = 1000;
width = 1000;
},
{
layerId = "94DDBC6A-1627-4027-9125-871D02041BCD";
shapes = (
{
closed = 1;
nodes = (
(248,855,l),
(248,567,l),
(392,567,l),
(392,855,l)
);
},
{
closed = 1;
nodes = (
(607,855,l),
(607,567,l),
(752,567,l),
(752,855,l)
);
},
{
closed = 1;
nodes = (
(52,767,l),
(52,634,l),
(948,634,l),
(948,767,l)
);
},
{
closed = 1;
nodes = (
(60,509,l),
(60,383,l),
(398,383,l),
(398,509,l)
);
},
{
closed = 1;
nodes = (
(160,443,l),
(160,139,l),
(301,139,l),
(301,443,l)
);
},
{
closed = 1;
nodes = (
(56,30,l),
(157,55,o),
(286,84,o),
(407,115,c),
(393,237,l),
(273,212,o),
(132,185,o),
(28,167,c)
);
},
{
closed = 1;
nodes = (
(436,535,l),
(436,297,ls),
(436,200,o),
(425,86,o),
(243,11,c),
(271,-11,o),
(322,-66,o),
(340,-95,c),
(505,-25,o),
(576,102,o),
(576,296,cs),
(576,535,l)
);
},
{
closed = 1;
nodes = (
(506,535,l),
(506,409,l),
(782,409,l),
(782,535,l)
);
},
{
closed = 1;
nodes = (
(518,279,l),
(571,215,o),
(617,147,o),
(638,102,c),
(754,182,l),
(732,222,o),
(682,287,o),
(625,349,c)
);
},
{
closed = 1;
nodes = (
(852,535,l),
(712,535,l),
(712,85,ls),
(712,-39,o),
(735,-79,o),
(831,-79,cs),
(847,-79,o),
(870,-79,o),
(887,-79,cs),
(974,-79,o),
(988,-16,o),
(994,125,c),
(960,134,o),
(914,160,o),
(888,184,c),
(886,71,o),
(884,45,o),
(873,45,cs),
(870,45,o),
(864,45,o),
(861,45,cs),
(853,45,o),
(852,51,o),
(852,84,cs)
);
}
);
vertWidth = 1000;
width = 1000;
}
);
note = cid34034;
unicode = 33599;
}
